<mxfile host="app.diagrams.net" agent="Mozilla/5.0 (Windows NT 10.0; Win64; x64; rv:128.0) Gecko/20100101 Firefox/128.0" version="25.0.3">
  <diagram name="Page-1" id="bldviGOM2PhAeHIemhQr">
    <mxGraphModel dx="6647" dy="3311" grid="1" gridSize="10" guides="1" tooltips="1" connect="1" arrows="1" fold="1" page="1" pageScale="1" pageWidth="850" pageHeight="1100" math="0" shadow="0">
      <root>
        <mxCell id="0" />
        <mxCell id="1" parent="0" />
        <mxCell id="HjJ79D1jQwEfLb-Sxw5U-41" value="" style="shape=process;whiteSpace=wrap;html=1;backgroundOutline=1;fontSize=18;" parent="1" vertex="1">
          <mxGeometry x="-377.25" y="-255" width="340" height="270" as="geometry" />
        </mxCell>
        <mxCell id="W3wNnanTfMTAaLyTmJy0-68" value="" style="sketch=0;outlineConnect=0;fillColor=#60a917;strokeColor=#2D7600;dashed=0;verticalLabelPosition=bottom;verticalAlign=top;align=center;html=1;fontSize=18;fontStyle=0;aspect=fixed;pointerEvents=1;shape=mxgraph.aws4.sagemaker_model;fontColor=#ffffff;" parent="1" vertex="1">
          <mxGeometry x="-340" y="-693.25" width="265.5" height="265.5" as="geometry" />
        </mxCell>
        <mxCell id="W3wNnanTfMTAaLyTmJy0-72" value="&lt;h1&gt;&lt;font style=&quot;font-size: 20px;&quot; face=&quot;Work sans&quot;&gt;API ML&lt;/font&gt;&lt;/h1&gt;" style="text;html=1;align=center;verticalAlign=middle;resizable=0;points=[];autosize=1;strokeColor=none;fillColor=none;fontSize=18;" parent="1" vertex="1">
          <mxGeometry x="-252.25" y="-910" width="90" height="100" as="geometry" />
        </mxCell>
        <mxCell id="Oxx6fiZ2N93gh7QRnnVH-42" value="" style="edgeStyle=orthogonalEdgeStyle;rounded=0;orthogonalLoop=1;jettySize=auto;html=1;" parent="1" source="HjJ79D1jQwEfLb-Sxw5U-8" target="Oxx6fiZ2N93gh7QRnnVH-39" edge="1">
          <mxGeometry relative="1" as="geometry" />
        </mxCell>
        <mxCell id="HjJ79D1jQwEfLb-Sxw5U-8" value="&lt;h2&gt;WS applicatif codification&lt;br&gt;&lt;/h2&gt;&lt;h2&gt;(côté IHM)&lt;br&gt;&lt;/h2&gt;&lt;h2&gt;/recherche &lt;br&gt;&lt;/h2&gt;" style="rounded=1;whiteSpace=wrap;html=1;fillColor=#dae8fc;fontFamily=Work Sans;strokeColor=#6c8ebf;fontSource=https%3A%2F%2Ffonts.googleapis.com%2Fcss%3Ffamily%3DWork%2BSans;fontSize=20;" parent="1" vertex="1">
          <mxGeometry x="-2150" y="-360" width="550" height="400" as="geometry" />
        </mxCell>
        <mxCell id="HjJ79D1jQwEfLb-Sxw5U-9" value="" style="shape=image;verticalLabelPosition=bottom;labelBackgroundColor=default;verticalAlign=top;aspect=fixed;imageAspect=0;image=data:image/svg+xml,PHN2ZyB4bWw6c3BhY2U9InByZXNlcnZlIiBvdmVyZmxvdz0idmlzaWJsZSIgdmlld0JveD0iMCAwIDM1NC4zNDYgNjU5LjA1NSIgaGVpZ2h0PSI2NTkuMDU1IiB3aWR0aD0iMzU0LjM0NiIgeG1sbnM6eGxpbms9Imh0dHA6Ly93d3cudzMub3JnLzE5OTkveGxpbmsiIHhtbG5zPSJodHRwOi8vd3d3LnczLm9yZy8yMDAwL3N2ZyIgaWQ9IkxheWVyXzEiIHZlcnNpb249IjEuMSI+JiN4YTs8Zz4mI3hhOwk8cGF0aCBkPSJNMTE3LjE1MSwzNDkuNTkyYzAsMC0xNy4yNjUsMTAuMDQ5LDEyLjMwMSwxMy40NCAgIGMzNS44MjQsNC4wOSw1NC4xMywzLjUwMSw5My41OTYtMy45NTljMCwwLDEwLjM5Nyw2LjUwNCwyNC44OTIsMTIuMTM3QzE1OS40MzksNDA5LjEyNyw0Ny42NDQsMzY5LjAxMywxMTcuMTUxLDM0OS41OTIgICBMMTE3LjE1MSwzNDkuNTkyeiIgZmlsbD0iIzAwNzRCRCIgY2xpcC1ydWxlPSJldmVub2RkIiBmaWxsLXJ1bGU9ImV2ZW5vZGQiLz4mI3hhOwk8cGF0aCBkPSJNMTA2LjMzMSwzMDAuMTA0YzAsMC0xOS4zNjcsMTQuMzM5LDEwLjIyMSwxNy4zOTcgICBjMzguMjcxLDMuOTUxLDY4LjQ4Myw0LjI3NSwxMjAuNzkyLTUuNzkyYzAsMCw3LjIxOCw3LjMzMiwxOC41ODUsMTEuMzM5QzE0OC45NDMsMzU0LjM0MiwyOS43ODIsMzI1LjUxLDEwNi4zMzEsMzAwLjEwNCAgIEwxMDYuMzMxLDMwMC4xMDR6IiBmaWxsPSIjMDA3NEJEIiBjbGlwLXJ1bGU9ImV2ZW5vZGQiIGZpbGwtcnVsZT0iZXZlbm9kZCIvPiYjeGE7CTxwYXRoIGQ9Ik0xOTcuNDk0LDIxNi4xNDVjMjEuODE4LDI1LjExNS01LjcyMSw0Ny42OTctNS43MjEsNDcuNjk3ICAgczU1LjM2Ny0yOC41NzcsMjkuOTQ1LTY0LjM4Yy0yMy43NTItMzMuMzczLTQxLjk2Mi00OS45NTEsNTYuNjIzLTEwNy4xMjRDMjc4LjM0Miw5Mi4zMzgsMTIzLjU4NywxMzAuOTc5LDE5Ny40OTQsMjE2LjE0NSAgIEwxOTcuNDk0LDIxNi4xNDV6IiBmaWxsPSIjRUEyRDJFIiBjbGlwLXJ1bGU9ImV2ZW5vZGQiIGZpbGwtcnVsZT0iZXZlbm9kZCIvPiYjeGE7CTxwYXRoIGQ9Ik0zMTQuNTQyLDM4Ni4yMDJjMCwwLDEyLjc4MSwxMC41MzYtMTQuMDc3LDE4LjY4NCAgIGMtNTEuMDcxLDE1LjQ2OS0yMTIuNjA0LDIwLjEzNS0yNTcuNDcsMC42MTljLTE2LjExNy03LjAyLDE0LjEyMS0xNi43NSwyMy42MzUtMTguODA1YzkuOTItMi4xNDYsMTUuNTg0LTEuNzU0LDE1LjU4NC0xLjc1NCAgIGMtMTcuOTM3LTEyLjYzMS0xMTUuOTM1LDI0LjgwNy00OS43NzIsMzUuNTQ0QzIxMi44NzEsNDQ5LjczNiwzNjEuMzM3LDQwNy4zMTcsMzE0LjU0MiwzODYuMjAyTDMxNC41NDIsMzg2LjIwMnoiIGZpbGw9IiMwMDc0QkQiIGNsaXAtcnVsZT0iZXZlbm9kZCIgZmlsbC1ydWxlPSJldmVub2RkIi8+JiN4YTsJPHBhdGggZD0iTTEyNS40NiwyNDguODIyYzAsMC04Mi4xNTUsMTkuNTE5LTI5LjA5MiwyNi42MTMgICBjMjIuNDEyLDIuOTk5LDY3LjA2MywyLjMwOSwxMDguNjg1LTEuMTgzYzM0LjAwNi0yLjg1NCw2OC4xMzMtOC45NTgsNjguMTMzLTguOTU4cy0xMS45ODIsNS4xNC0yMC42NTcsMTEuMDYgICBDMTY5LjA4NSwyOTguMzAxLDcuOTE3LDI4OC4wOCw1NC4zMjIsMjY1LjY0MkM5My41NDksMjQ2LjY2NSwxMjUuNDYsMjQ4LjgyMiwxMjUuNDYsMjQ4LjgyMkwxMjUuNDYsMjQ4LjgyMnoiIGZpbGw9IiMwMDc0QkQiIGNsaXAtcnVsZT0iZXZlbm9kZCIgZmlsbC1ydWxlPSJldmVub2RkIi8+JiN4YTsJPHBhdGggZD0iTTI3Mi44NDYsMzMxLjE5OGM4NC44MTgtNDQuMDYzLDQ1LjU5Ny04Ni40MTIsMTguMjIzLTgwLjcwOCAgIGMtNi42OTQsMS4zOTctOS42OTcsMi42MDctOS42OTcsMi42MDdzMi40OTQtMy45MDcsNy4yNDMtNS41ODhjNTQuMTU1LTE5LjAzLDk1Ljc5NCw1Ni4xNDYtMTcuNDY0LDg1LjkxOSAgIEMyNzEuMTUsMzMzLjQyOCwyNzIuNDUzLDMzMi4yNDgsMjcyLjg0NiwzMzEuMTk4TDI3Mi44NDYsMzMxLjE5OHoiIGZpbGw9IiMwMDc0QkQiIGNsaXAtcnVsZT0iZXZlbm9kZCIgZmlsbC1ydWxlPSJldmVub2RkIi8+JiN4YTsJPHBhdGggZD0iTTIyMS43MTksMGMwLDAsNDYuOTYzLDQ2Ljk5LTQ0LjU1NywxMTkuMjI3ICAgYy03My4zOTMsNTcuOTY5LTE2LjczNCw5MS4wMDktMC4wMjYsMTI4Ljc3OGMtNDIuODQ1LTM4LjY1My03NC4yNzEtNzIuNjg0LTUzLjE5Mi0xMDQuMzUyICAgQzE1NC44OTgsOTcuMTc0LDI0MC42NjMsNzQuNjMyLDIyMS43MTksMEwyMjEuNzE5LDB6IiBmaWxsPSIjRUEyRDJFIiBjbGlwLXJ1bGU9ImV2ZW5vZGQiIGZpbGwtcnVsZT0iZXZlbm9kZCIvPiYjeGE7CTxwYXRoIGQ9Ik0xMzMuNzk5LDQ1MC42MzdjODEuMzk3LDUuMjA0LDIwNi40MjYtMi44OTYsMjA5LjM4NS00MS40MTUgICBjMCwwLTUuNjg4LDE0LjYwMi02Ny4yNzYsMjYuMTg4Yy02OS40ODEsMTMuMDgxLTE1NS4xOTcsMTEuNTU4LTIwNi4wMTYsMy4xNjdDNjkuODkyLDQzOC41NzcsODAuMzAzLDQ0Ny4xOTQsMTMzLjc5OSw0NTAuNjM3ICAgTDEzMy43OTksNDUwLjYzN3oiIGZpbGw9IiMwMDc0QkQiIGNsaXAtcnVsZT0iZXZlbm9kZCIgZmlsbC1ydWxlPSJldmVub2RkIi8+JiN4YTsJPHBhdGggZD0iTTMzOS40MjYsNTE5LjcxNmgtMi40Nzl2LTEuMzg1aDYuNjc2djEuMzg1aC0yLjQ2OXY2LjkyOGgtMS43MjkgICBWNTE5LjcxNkwzMzkuNDI2LDUxOS43MTZMMzM5LjQyNiw1MTkuNzE2eiBNMzUyLjc1Niw1MjAuMDY3aC0wLjAzMmwtMi40NjEsNi41NzZoLTEuMTMybC0yLjQ0Ni02LjU3NmgtMC4wMjV2Ni41NzZoLTEuNjM4di04LjMxMyAgIGgyLjQwMmwyLjI2NCw1Ljg4NWwyLjI3MS01Ljg4NWgyLjM4OHY4LjMxM2gtMS41OVY1MjAuMDY3TDM1Mi43NTYsNTIwLjA2N3oiIGZpbGw9IiNFQTJEMkUiIGNsaXAtcnVsZT0iZXZlbm9kZCIgZmlsbC1ydWxlPSJldmVub2RkIi8+JiN4YTsJPHBhdGggZD0iTTEyMC40NjEsNTk3LjgxM2MtNy42NzYsNi42NTQtMTUuNzkzLDEwLjM5Ni0yMy4wNzksMTAuMzk2ICAgYy0xMC4zNzgsMC0xNi4wMDctNi4yMzYtMTYuMDA3LTE2LjIxNmMwLTEwLjgwMyw2LjAyNy0xOC43MSwzMC4xNjMtMTguNzFoOC45MjNWNTk3LjgxM0wxMjAuNDYxLDU5Ny44MTNMMTIwLjQ2MSw1OTcuODEzeiAgICBNMTQxLjY1LDYyMS43MTZWNTQ3LjcyYzAtMTguOTE1LTEwLjc4Ny0zMS4zOTYtMzYuNzgyLTMxLjM5NmMtMTUuMTY4LDAtMjguNDY3LDMuNzUtMzkuMjc4LDguNTI1bDMuMTExLDEzLjEwNiAgIGM4LjUxNS0zLjEyNywxOS41MjYtNi4wMzEsMzAuMzM3LTYuMDMxYzE0Ljk3OCwwLDIxLjQyMyw2LjAzMSwyMS40MjMsMTguNTA1djkuMzU2aC03LjQ4NWMtMzYuMzgzLDAtNTIuNzk4LDE0LjExLTUyLjc5OCwzNS4zMzYgICBjMCwxOC4yODUsMTAuODE5LDI4LjY4MiwzMS4xODUsMjguNjgyYzEzLjA4OCwwLDIyLjg3LTUuNDA1LDMyLjAwMS0xMy4zMTVsMS42NjMsMTEuMjI4SDE0MS42NUwxNDEuNjUsNjIxLjcxNnoiIGZpbGw9IiNFQTJEMkUiIGNsaXAtcnVsZT0iZXZlbm9kZCIgZmlsbC1ydWxlPSJldmVub2RkIi8+JiN4YTsJPHBhdGggZD0iTTIxMi4zNjIsNjIxLjcxNmgtMjYuNDIzbC0zMS44MDctMTAzLjUwMmgyMy4wNzdsMTkuNzQzLDYzLjYgICBsNC4zOTEsMTkuMTA5YzkuOTY1LTI3LjYzOSwxNy4wMzItNTUuNzAxLDIwLjU2Ni04Mi43MDloMjIuNDQ1QzIzOC4zNTIsNTUyLjI5NCwyMjcuNTIzLDU4OS43MDYsMjEyLjM2Miw2MjEuNzE2TDIxMi4zNjIsNjIxLjcxNnoiIGZpbGw9IiNFQTJEMkUiIGNsaXAtcnVsZT0iZXZlbm9kZCIgZmlsbC1ydWxlPSJldmVub2RkIi8+JiN4YTsJPHBhdGggZD0iTTMxMy43NTUsNTk3LjgxM2MtNy43MDEsNi42NTQtMTUuODIsMTAuMzk2LTIzLjA4NiwxMC4zOTYgICBjLTEwLjM4MiwwLTE2LjAxMS02LjIzNi0xNi4wMTEtMTYuMjE2YzAtMTAuODAzLDYuMDM5LTE4LjcxLDMwLjE1NC0xOC43MWg4Ljk0MlY1OTcuODEzTDMxMy43NTUsNTk3LjgxM0wzMTMuNzU1LDU5Ny44MTN6ICAgIE0zMzQuOTUxLDYyMS43MTZWNTQ3LjcyYzAtMTguOTE1LTEwLjgxOC0zMS4zOTYtMzYuNzg5LTMxLjM5NmMtMTUuMTg4LDAtMjguNDg0LDMuNzUtMzkuMjk1LDguNTI1bDMuMTE2LDEzLjEwNiAgIGM4LjUxOS0zLjEyNywxOS41NDUtNi4wMzEsMzAuMzU1LTYuMDMxYzE0Ljk2LDAsMjEuNDE2LDYuMDMxLDIxLjQxNiwxOC41MDV2OS4zNTZoLTcuNDg1Yy0zNi4zOTEsMC01Mi44MDEsMTQuMTEtNTIuODAxLDM1LjMzNiAgIGMwLDE4LjI4NSwxMC44MDQsMjguNjgyLDMxLjE2OSwyOC42ODJjMTMuMDk5LDAsMjIuODYyLTUuNDA1LDMyLjAxOC0xMy4zMTVsMS42NzQsMTEuMjI4SDMzNC45NTFMMzM0Ljk1MSw2MjEuNzE2eiIgZmlsbD0iI0VBMkQyRSIgY2xpcC1ydWxlPSJldmVub2RkIiBmaWxsLXJ1bGU9ImV2ZW5vZGQiLz4mI3hhOwk8cGF0aCBkPSJNMzYuOTQxLDYzOS4zMDZjLTYuMDM3LDguODIxLTE1LjgsMTUuODA5LTI2LjQ3OSwxOS43NDkgICBMMCw2NDYuNzMxYzguMTM1LTQuMTc4LDE1LjEwMy0xMC45MTIsMTguMzQ1LTE3LjE4MmMyLjc5Ni01LjU4OSwzLjk2LTEyLjc3MywzLjk2LTI5Ljk3MVY0ODEuMzk4aDIyLjUxOXYxMTYuNTUxICAgQzQ0LjgyNCw2MjAuOTUsNDIuOTg4LDYzMC4yNDksMzYuOTQxLDYzOS4zMDZMMzYuOTQxLDYzOS4zMDZ6IiBmaWxsPSIjRUEyRDJFIiBjbGlwLXJ1bGU9ImV2ZW5vZGQiIGZpbGwtcnVsZT0iZXZlbm9kZCIvPiYjeGE7PC9nPiYjeGE7PC9zdmc+;fontSize=20;" parent="1" vertex="1">
          <mxGeometry x="-1790" y="-125" width="69.81" height="130" as="geometry" />
        </mxCell>
        <mxCell id="HjJ79D1jQwEfLb-Sxw5U-40" value="&lt;div align=&quot;left&quot;&gt;&lt;font face=&quot;Work sans&quot;&gt;{&lt;/font&gt;&lt;/div&gt;&lt;div align=&quot;left&quot;&gt;&lt;font face=&quot;Work sans&quot;&gt;&amp;nbsp; &quot;1&quot;: {&lt;/font&gt;&lt;font face=&quot;Work sans&quot;&gt;&amp;nbsp;&amp;nbsp;&amp;nbsp;&lt;/font&gt;&lt;/div&gt;&lt;div align=&quot;left&quot;&gt;&lt;font face=&quot;Work sans&quot;&gt;&amp;nbsp; &lt;span style=&quot;white-space: pre;&quot;&gt;&#x9;&lt;/span&gt;&quot;code&quot;: &quot;&quot;,&lt;/font&gt;&lt;/div&gt;&lt;div align=&quot;left&quot;&gt;&lt;font face=&quot;Work sans&quot;&gt;&lt;span style=&quot;white-space: pre;&quot;&gt;&#x9;&lt;/span&gt;&quot;probabilite&quot;: float,&lt;/font&gt;&lt;/div&gt;&lt;div align=&quot;left&quot;&gt;&lt;font face=&quot;Work sans&quot;&gt;&lt;span style=&quot;white-space: pre;&quot;&gt;&#x9;&lt;/span&gt;&quot;libelle&quot;: &quot;&quot; &lt;/font&gt;&lt;font face=&quot;Work sans&quot;&gt;},&lt;/font&gt;&lt;/div&gt;&lt;div align=&quot;left&quot;&gt;&lt;font face=&quot;Work sans&quot;&gt;&amp;nbsp; &quot;2&quot;: {}&lt;/font&gt;&lt;font face=&quot;Work sans&quot;&gt;,&lt;/font&gt;&lt;/div&gt;&lt;div align=&quot;left&quot;&gt;&lt;font face=&quot;Work sans&quot;&gt;&amp;nbsp;&amp;nbsp; ... ,&lt;/font&gt;&lt;font&gt;&lt;br&gt;&lt;/font&gt;&lt;/div&gt;&lt;div align=&quot;left&quot;&gt;&lt;font face=&quot;Work sans&quot;&gt;&amp;nbsp; &quot;IC&quot;: float,&lt;/font&gt;&lt;/div&gt;&lt;div align=&quot;left&quot;&gt;&lt;font face=&quot;Work sans&quot;&gt;&amp;nbsp; &quot;MLversion&quot;: &quot;&quot;,&lt;br&gt;&lt;/font&gt;&lt;/div&gt;&lt;font face=&quot;Work sans&quot;&gt;}&lt;/font&gt;" style="text;html=1;align=center;verticalAlign=middle;resizable=0;points=[];autosize=1;strokeColor=none;fillColor=none;fontSize=20;" parent="1" vertex="1">
          <mxGeometry x="-339.5" y="-250" width="250" height="250" as="geometry" />
        </mxCell>
        <mxCell id="3R7sq6mTd90VJ8zwVJWm-7" value="" style="shape=process;whiteSpace=wrap;html=1;backgroundOutline=1;fontSize=18;" parent="1" vertex="1">
          <mxGeometry x="-1440" y="-718" width="330" height="315" as="geometry" />
        </mxCell>
        <mxCell id="3R7sq6mTd90VJ8zwVJWm-8" value="&lt;div align=&quot;left&quot;&gt;&lt;font face=&quot;Work sans&quot;&gt;{&amp;nbsp; &lt;br&gt;&lt;/font&gt;&lt;/div&gt;&lt;div align=&quot;left&quot;&gt;&lt;font face=&quot;Work sans&quot;&gt;&quot;libelle&quot;: &quot;&quot;,&lt;/font&gt;&lt;/div&gt;&lt;div align=&quot;left&quot;&gt;&lt;font face=&quot;Work sans&quot;&gt;&quot;activ_nat_lib_et&quot;: &quot;&quot;,&lt;/font&gt;&lt;/div&gt;&lt;div align=&quot;left&quot;&gt;&lt;font face=&quot;Work sans&quot;&gt;&quot;actic_sec_agri_et&quot;: &quot;&quot;,&lt;/font&gt;&lt;/div&gt;&lt;div align=&quot;left&quot;&gt;&lt;font face=&quot;Work sans&quot;&gt;&quot;TYP&quot;: &quot;&quot;,&lt;/font&gt;&lt;/div&gt;&lt;div align=&quot;left&quot;&gt;&lt;font face=&quot;Work sans&quot;&gt;&quot;NAT&quot;: &quot;&quot;,&lt;/font&gt;&lt;/div&gt;&lt;div align=&quot;left&quot;&gt;&lt;font face=&quot;Work sans&quot;&gt;&quot;SRF&quot;: &quot;&quot;,&lt;/font&gt;&lt;/div&gt;&lt;div align=&quot;left&quot;&gt;&lt;font face=&quot;Work sans&quot;&gt;&quot;EVT&quot;: &quot;&quot;,&lt;/font&gt;&lt;/div&gt;&lt;div align=&quot;left&quot;&gt;&lt;font face=&quot;Work sans&quot;&gt;&quot;CJ&quot;: &quot;&quot;,&lt;/font&gt;&lt;/div&gt;&lt;div align=&quot;left&quot;&gt;&lt;font face=&quot;Work sans&quot;&gt;&quot;CRT&quot;: &quot;&quot;&lt;br&gt;&lt;/font&gt;&lt;/div&gt;&lt;div align=&quot;left&quot;&gt;&lt;font face=&quot;Work sans&quot;&gt;&quot;numberOfPredictions&quot;: &quot;&quot;&lt;br&gt;&lt;/font&gt;&lt;/div&gt;&lt;div align=&quot;left&quot;&gt;&lt;font face=&quot;Work sans&quot;&gt;}&lt;/font&gt;&lt;/div&gt;&lt;div align=&quot;left&quot;&gt;&lt;font face=&quot;Work sans&quot;&gt;&amp;nbsp;&lt;/font&gt;&lt;/div&gt;" style="text;html=1;align=center;verticalAlign=middle;resizable=0;points=[];autosize=1;strokeColor=none;fillColor=none;fontSize=20;" parent="1" vertex="1">
          <mxGeometry x="-1410" y="-727.5" width="280" height="330" as="geometry" />
        </mxCell>
        <mxCell id="Oxx6fiZ2N93gh7QRnnVH-3" value="&lt;font style=&quot;font-size: 22px;&quot;&gt;/predict&lt;/font&gt;" style="swimlane;whiteSpace=wrap;html=1;" parent="1" vertex="1">
          <mxGeometry x="-790" y="-735" width="340" height="330" as="geometry" />
        </mxCell>
        <mxCell id="Oxx6fiZ2N93gh7QRnnVH-1" value="&lt;div align=&quot;left&quot;&gt;&lt;font face=&quot;Work sans&quot;&gt;{&amp;nbsp; &lt;br&gt;&lt;/font&gt;&lt;/div&gt;&lt;div align=&quot;left&quot;&gt;&lt;font face=&quot;Work sans&quot;&gt;&quot;&lt;/font&gt;&lt;font&gt;&lt;span&gt;&lt;span&gt;description_activity&lt;span&gt; &lt;/span&gt;&lt;/span&gt;&lt;/span&gt;&lt;font face=&quot;Work sans&quot;&gt;&quot;: &quot;&quot;,&lt;/font&gt;&lt;/font&gt;&lt;/div&gt;&lt;div align=&quot;left&quot;&gt;&lt;font face=&quot;Work sans&quot;&gt;&quot;&lt;/font&gt;&lt;font&gt;&lt;span&gt;&lt;span&gt;other_nature_activity&lt;/span&gt;&lt;/span&gt;&lt;font face=&quot;Work sans&quot;&gt;&quot;: &quot;&quot;,&lt;/font&gt;&lt;/font&gt;&lt;/div&gt;&lt;div align=&quot;left&quot;&gt;&lt;font face=&quot;Work sans&quot;&gt;&quot;&lt;/font&gt;&lt;font&gt;&lt;span&gt;&lt;span&gt;precision_act_sec_agricole&lt;/span&gt;&lt;/span&gt;&lt;font face=&quot;Work sans&quot;&gt;&quot;: &quot;&quot;,&lt;/font&gt;&lt;/font&gt;&lt;/div&gt;&lt;div align=&quot;left&quot;&gt;&lt;font face=&quot;Work sans&quot;&gt;&quot;&lt;/font&gt;&lt;font&gt;&lt;span&gt;&lt;span&gt;type_form&lt;/span&gt;&lt;/span&gt;&lt;font face=&quot;Work sans&quot;&gt;&quot;: &quot;&quot;,&lt;/font&gt;&lt;/font&gt;&lt;/div&gt;&lt;div align=&quot;left&quot;&gt;&lt;font face=&quot;Work sans&quot;&gt;&quot;&lt;/font&gt;&lt;font&gt;&lt;span&gt;&lt;span&gt;nature&lt;/span&gt;&lt;/span&gt;&lt;font face=&quot;Work sans&quot;&gt;&quot;: &quot;&quot;,&lt;/font&gt;&lt;/font&gt;&lt;/div&gt;&lt;div align=&quot;left&quot;&gt;&lt;font face=&quot;Work sans&quot;&gt;&quot;&lt;/font&gt;&lt;font&gt;&lt;span&gt;&lt;span&gt;surface&lt;/span&gt;&lt;/span&gt;&lt;font face=&quot;Work sans&quot;&gt;&quot;: &quot;&quot;,&lt;/font&gt;&lt;/font&gt;&lt;/div&gt;&lt;div align=&quot;left&quot;&gt;&lt;font face=&quot;Work sans&quot;&gt;&quot;&lt;/font&gt;&lt;font&gt;&lt;span&gt;&lt;span&gt;event&lt;/span&gt;&lt;/span&gt;&lt;font face=&quot;Work sans&quot;&gt;&quot;: &quot;&quot;,&lt;/font&gt;&lt;/font&gt;&lt;/div&gt;&lt;div align=&quot;left&quot;&gt;&lt;font face=&quot;Work sans&quot;&gt;&quot;&lt;/font&gt;&lt;font&gt;&lt;span&gt;&lt;span&gt;cj&lt;/span&gt;&lt;/span&gt;&lt;font face=&quot;Work sans&quot;&gt;&quot;: &quot;&quot;,&lt;/font&gt;&lt;/font&gt;&lt;/div&gt;&lt;div align=&quot;left&quot;&gt;&lt;font face=&quot;Work sans&quot;&gt;&quot;&lt;/font&gt;&lt;font&gt;&lt;span&gt;&lt;span&gt;activity_permanence_status&lt;/span&gt;&lt;/span&gt;&lt;font face=&quot;Work sans&quot;&gt;&quot;: &quot;&quot;&lt;br&gt;&lt;/font&gt;&lt;/font&gt;&lt;/div&gt;&lt;div align=&quot;left&quot;&gt;&lt;font face=&quot;Work sans&quot;&gt;}&lt;/font&gt;&lt;/div&gt;&lt;div align=&quot;left&quot;&gt;&lt;font face=&quot;Work sans&quot;&gt;&amp;nbsp;&lt;/font&gt;&lt;/div&gt;" style="text;html=1;align=center;verticalAlign=middle;resizable=0;points=[];autosize=1;strokeColor=none;fillColor=none;fontSize=20;fontFamily=Helvetica;fontColor=default;" parent="Oxx6fiZ2N93gh7QRnnVH-3" vertex="1">
          <mxGeometry y="30" width="320" height="300" as="geometry" />
        </mxCell>
        <mxCell id="Oxx6fiZ2N93gh7QRnnVH-4" value="" style="endArrow=none;html=1;rounded=0;exitX=1.003;exitY=0.399;exitDx=0;exitDy=0;exitPerimeter=0;entryX=0;entryY=0.5;entryDx=0;entryDy=0;" parent="1" source="HjJ79D1jQwEfLb-Sxw5U-8" target="3R7sq6mTd90VJ8zwVJWm-7" edge="1">
          <mxGeometry width="50" height="50" relative="1" as="geometry">
            <mxPoint x="-1660" y="-180" as="sourcePoint" />
            <mxPoint x="-1540" y="-570" as="targetPoint" />
            <Array as="points">
              <mxPoint x="-1560" y="-200" />
              <mxPoint x="-1560" y="-560" />
            </Array>
          </mxGeometry>
        </mxCell>
        <mxCell id="Oxx6fiZ2N93gh7QRnnVH-7" value="" style="endArrow=classic;html=1;rounded=0;exitX=1;exitY=0.5;exitDx=0;exitDy=0;entryX=-0.006;entryY=0.484;entryDx=0;entryDy=0;entryPerimeter=0;" parent="1" source="3R7sq6mTd90VJ8zwVJWm-7" target="Oxx6fiZ2N93gh7QRnnVH-1" edge="1">
          <mxGeometry width="50" height="50" relative="1" as="geometry">
            <mxPoint x="-660" y="-300" as="sourcePoint" />
            <mxPoint x="-740" y="-560" as="targetPoint" />
          </mxGeometry>
        </mxCell>
        <mxCell id="Oxx6fiZ2N93gh7QRnnVH-8" value="" style="endArrow=classic;html=1;rounded=0;" parent="1" target="W3wNnanTfMTAaLyTmJy0-68" edge="1">
          <mxGeometry width="50" height="50" relative="1" as="geometry">
            <mxPoint x="-450" y="-560" as="sourcePoint" />
            <mxPoint x="-780" y="-450" as="targetPoint" />
          </mxGeometry>
        </mxCell>
        <mxCell id="Oxx6fiZ2N93gh7QRnnVH-9" value="&lt;font style=&quot;font-size: 20px;&quot; face=&quot;Work sans&quot;&gt;&lt;b&gt;&lt;i&gt;Appel à&amp;nbsp; l&#39;API&lt;/i&gt;&lt;/b&gt;&lt;/font&gt;" style="text;html=1;align=center;verticalAlign=middle;resizable=0;points=[];autosize=1;strokeColor=none;fillColor=none;fontSize=18;" parent="1" vertex="1">
          <mxGeometry x="-1065" y="-610" width="160" height="40" as="geometry" />
        </mxCell>
        <mxCell id="Oxx6fiZ2N93gh7QRnnVH-11" value="" style="shape=flexArrow;endArrow=classic;html=1;rounded=0;fillColor=#6a00ff;strokeColor=#3700CC;fontSize=18;endWidth=42.77777777777778;endSize=12.022222222222222;width=27.22222222222222;" parent="1" edge="1">
          <mxGeometry width="50" height="50" relative="1" as="geometry">
            <mxPoint x="-207.73" y="-403" as="sourcePoint" />
            <mxPoint x="-207.44" y="-313" as="targetPoint" />
          </mxGeometry>
        </mxCell>
        <mxCell id="Oxx6fiZ2N93gh7QRnnVH-12" value="&lt;font style=&quot;font-size: 20px;&quot;&gt;&lt;b&gt;Response body&lt;br&gt;&lt;/b&gt;&lt;/font&gt;" style="text;whiteSpace=wrap;html=1;" parent="1" vertex="1">
          <mxGeometry x="-280" y="-310" width="230" height="50" as="geometry" />
        </mxCell>
        <mxCell id="Oxx6fiZ2N93gh7QRnnVH-13" value="" style="endArrow=classic;html=1;rounded=0;exitX=0;exitY=0.5;exitDx=0;exitDy=0;entryX=0.996;entryY=0.599;entryDx=0;entryDy=0;entryPerimeter=0;" parent="1" target="HjJ79D1jQwEfLb-Sxw5U-8" edge="1">
          <mxGeometry width="50" height="50" relative="1" as="geometry">
            <mxPoint x="-377.25" y="-120.5" as="sourcePoint" />
            <mxPoint x="-1700" y="-119.5" as="targetPoint" />
          </mxGeometry>
        </mxCell>
        <mxCell id="Oxx6fiZ2N93gh7QRnnVH-14" value="&lt;font style=&quot;font-size: 20px;&quot; face=&quot;Work sans&quot;&gt;&lt;b&gt;&lt;i&gt;Réponse de l&#39;API&lt;/i&gt;&lt;/b&gt;&lt;/font&gt;" style="text;html=1;align=center;verticalAlign=middle;resizable=0;points=[];autosize=1;strokeColor=none;fillColor=none;fontSize=18;" parent="1" vertex="1">
          <mxGeometry x="-1085" y="-180" width="190" height="40" as="geometry" />
        </mxCell>
        <mxCell id="Oxx6fiZ2N93gh7QRnnVH-15" value="" style="swimlane;startSize=0;strokeColor=#001DBC;glass=0;shadow=0;fillColor=#0050ef;fontColor=#ffffff;strokeWidth=5;" parent="1" vertex="1">
          <mxGeometry x="-840" y="-774" width="1280" height="810" as="geometry" />
        </mxCell>
        <mxCell id="Oxx6fiZ2N93gh7QRnnVH-24" value="&lt;font style=&quot;font-size: 22px;&quot;&gt;/predict&lt;/font&gt;" style="swimlane;whiteSpace=wrap;html=1;" parent="Oxx6fiZ2N93gh7QRnnVH-15" vertex="1">
          <mxGeometry x="880" y="40" width="340" height="330" as="geometry" />
        </mxCell>
        <mxCell id="Oxx6fiZ2N93gh7QRnnVH-25" value="&lt;div align=&quot;left&quot;&gt;&lt;font face=&quot;Work sans&quot;&gt;{&amp;nbsp; &lt;br&gt;&lt;/font&gt;&lt;/div&gt;&lt;div align=&quot;left&quot;&gt;&lt;font face=&quot;Work sans&quot;&gt;&quot;&lt;/font&gt;&lt;font&gt;&lt;span&gt;&lt;span&gt;description_activity&lt;span&gt; &lt;/span&gt;&lt;/span&gt;&lt;/span&gt;&lt;font face=&quot;Work sans&quot;&gt;&quot;: &quot;&quot;,&lt;/font&gt;&lt;/font&gt;&lt;/div&gt;&lt;div align=&quot;left&quot;&gt;&lt;font face=&quot;Work sans&quot;&gt;&quot;&lt;/font&gt;&lt;font&gt;&lt;span&gt;&lt;span&gt;other_nature_activity&lt;/span&gt;&lt;/span&gt;&lt;font face=&quot;Work sans&quot;&gt;&quot;: &quot;&quot;,&lt;/font&gt;&lt;/font&gt;&lt;/div&gt;&lt;div align=&quot;left&quot;&gt;&lt;font face=&quot;Work sans&quot;&gt;&quot;&lt;/font&gt;&lt;font&gt;&lt;span&gt;&lt;span&gt;precision_act_sec_agricole&lt;/span&gt;&lt;/span&gt;&lt;font face=&quot;Work sans&quot;&gt;&quot;: &quot;&quot;,&lt;/font&gt;&lt;/font&gt;&lt;/div&gt;&lt;div align=&quot;left&quot;&gt;&lt;font face=&quot;Work sans&quot;&gt;&quot;&lt;/font&gt;&lt;font&gt;&lt;span&gt;&lt;span&gt;type_form&lt;/span&gt;&lt;/span&gt;&lt;font face=&quot;Work sans&quot;&gt;&quot;: &quot;&quot;,&lt;/font&gt;&lt;/font&gt;&lt;/div&gt;&lt;div align=&quot;left&quot;&gt;&lt;font face=&quot;Work sans&quot;&gt;&quot;&lt;/font&gt;&lt;font&gt;&lt;span&gt;&lt;span&gt;nature&lt;/span&gt;&lt;/span&gt;&lt;font face=&quot;Work sans&quot;&gt;&quot;: &quot;&quot;,&lt;/font&gt;&lt;/font&gt;&lt;/div&gt;&lt;div align=&quot;left&quot;&gt;&lt;font face=&quot;Work sans&quot;&gt;&quot;&lt;/font&gt;&lt;font&gt;&lt;span&gt;&lt;span&gt;surface&lt;/span&gt;&lt;/span&gt;&lt;font face=&quot;Work sans&quot;&gt;&quot;: &quot;&quot;,&lt;/font&gt;&lt;/font&gt;&lt;/div&gt;&lt;div align=&quot;left&quot;&gt;&lt;font face=&quot;Work sans&quot;&gt;&quot;&lt;/font&gt;&lt;font&gt;&lt;span&gt;&lt;span&gt;event&lt;/span&gt;&lt;/span&gt;&lt;font face=&quot;Work sans&quot;&gt;&quot;: &quot;&quot;,&lt;/font&gt;&lt;/font&gt;&lt;/div&gt;&lt;div align=&quot;left&quot;&gt;&lt;font face=&quot;Work sans&quot;&gt;&quot;&lt;/font&gt;&lt;font&gt;&lt;span&gt;&lt;span&gt;cj&lt;/span&gt;&lt;/span&gt;&lt;font face=&quot;Work sans&quot;&gt;&quot;: &quot;&quot;,&lt;/font&gt;&lt;/font&gt;&lt;/div&gt;&lt;div align=&quot;left&quot;&gt;&lt;font face=&quot;Work sans&quot;&gt;&quot;&lt;/font&gt;&lt;font&gt;&lt;span&gt;&lt;span&gt;activity_permanence_status&lt;/span&gt;&lt;/span&gt;&lt;font face=&quot;Work sans&quot;&gt;&quot;: &quot;&quot;&lt;br&gt;&lt;/font&gt;&lt;/font&gt;&lt;/div&gt;&lt;div align=&quot;left&quot;&gt;&lt;font face=&quot;Work sans&quot;&gt;}&lt;/font&gt;&lt;/div&gt;&lt;div align=&quot;left&quot;&gt;&lt;font face=&quot;Work sans&quot;&gt;&amp;nbsp;&lt;/font&gt;&lt;/div&gt;" style="text;html=1;align=center;verticalAlign=middle;resizable=0;points=[];autosize=1;strokeColor=none;fillColor=none;fontSize=20;fontFamily=Helvetica;fontColor=default;" parent="Oxx6fiZ2N93gh7QRnnVH-24" vertex="1">
          <mxGeometry y="30" width="320" height="300" as="geometry" />
        </mxCell>
        <mxCell id="Oxx6fiZ2N93gh7QRnnVH-32" value="" style="endArrow=classic;html=1;rounded=0;" parent="Oxx6fiZ2N93gh7QRnnVH-15" target="W3wNnanTfMTAaLyTmJy0-68" edge="1">
          <mxGeometry width="50" height="50" relative="1" as="geometry">
            <mxPoint x="880" y="214" as="sourcePoint" />
            <mxPoint x="770" y="214" as="targetPoint" />
          </mxGeometry>
        </mxCell>
        <mxCell id="3R7sq6mTd90VJ8zwVJWm-2" value="&lt;font style=&quot;font-size: 22px;&quot;&gt;&lt;a style=&quot;scrollbar-width: thin; text-decoration: underline; color: var(--cpd-color-text-link-external); background-color: rgb(240, 242, 245); font-family: Inter, Twemoji, &amp;quot;Apple Color Emoji&amp;quot;, &amp;quot;Segoe UI Emoji&amp;quot;, Arial, Helvetica, sans-serif, &amp;quot;Noto Color Emoji&amp;quot;; font-style: normal; font-variant-ligatures: normal; font-variant-caps: normal; font-weight: 400; letter-spacing: -0.132px; text-align: start; text-indent: 0px; text-transform: none; word-spacing: 0px; -webkit-text-stroke-width: 0px; white-space: normal;&quot; rel=&quot;noreferrer noopener&quot; target=&quot;_blank&quot; class=&quot;linkified&quot; href=&quot;https://api-ml-codification-sirene.developpement.insee.fr/swagger&quot;&gt;https://api-ml-codification-sirene.developpement.insee.f&lt;/a&gt;r&lt;/font&gt;" style="text;html=1;align=center;verticalAlign=middle;whiteSpace=wrap;rounded=0;fontFamily=Helvetica;fontSize=18;fontColor=default;autosize=1;resizable=0;" parent="1" vertex="1">
          <mxGeometry x="-480" y="-830" width="570" height="40" as="geometry" />
        </mxCell>
        <mxCell id="PrI9KaRf1beF4u_ZDY7f-14" value="" style="edgeStyle=orthogonalEdgeStyle;rounded=0;orthogonalLoop=1;jettySize=auto;html=1;exitX=0.5;exitY=1;exitDx=0;exitDy=0;" edge="1" parent="1" source="Oxx6fiZ2N93gh7QRnnVH-44" target="Oxx6fiZ2N93gh7QRnnVH-16">
          <mxGeometry relative="1" as="geometry">
            <mxPoint x="1495" y="410" as="sourcePoint" />
          </mxGeometry>
        </mxCell>
        <mxCell id="Oxx6fiZ2N93gh7QRnnVH-16" value="&lt;h2&gt;Module de&amp;nbsp;&amp;nbsp;&amp;nbsp;&lt;/h2&gt;&lt;h2&gt;réconciliation/harmonisation des 2&lt;span style=&quot;background-color: initial;&quot;&gt;&amp;nbsp;NAF&lt;/span&gt;&lt;/h2&gt;" style="rounded=1;whiteSpace=wrap;html=1;fillColor=#d5e8d4;fontFamily=Work Sans;strokeColor=#82b366;fontSource=https%3A%2F%2Ffonts.googleapis.com%2Fcss%3Ffamily%3DWork%2BSans;fontSize=20;" parent="1" vertex="1">
          <mxGeometry x="1220" y="660" width="550" height="400" as="geometry" />
        </mxCell>
        <mxCell id="Oxx6fiZ2N93gh7QRnnVH-17" value="" style="shape=image;verticalLabelPosition=bottom;labelBackgroundColor=default;verticalAlign=top;aspect=fixed;imageAspect=0;image=data:image/svg+xml,PHN2ZyB4bWw6c3BhY2U9InByZXNlcnZlIiBvdmVyZmxvdz0idmlzaWJsZSIgdmlld0JveD0iMCAwIDM1NC4zNDYgNjU5LjA1NSIgaGVpZ2h0PSI2NTkuMDU1IiB3aWR0aD0iMzU0LjM0NiIgeG1sbnM6eGxpbms9Imh0dHA6Ly93d3cudzMub3JnLzE5OTkveGxpbmsiIHhtbG5zPSJodHRwOi8vd3d3LnczLm9yZy8yMDAwL3N2ZyIgaWQ9IkxheWVyXzEiIHZlcnNpb249IjEuMSI+JiN4YTs8Zz4mI3hhOwk8cGF0aCBkPSJNMTE3LjE1MSwzNDkuNTkyYzAsMC0xNy4yNjUsMTAuMDQ5LDEyLjMwMSwxMy40NCAgIGMzNS44MjQsNC4wOSw1NC4xMywzLjUwMSw5My41OTYtMy45NTljMCwwLDEwLjM5Nyw2LjUwNCwyNC44OTIsMTIuMTM3QzE1OS40MzksNDA5LjEyNyw0Ny42NDQsMzY5LjAxMywxMTcuMTUxLDM0OS41OTIgICBMMTE3LjE1MSwzNDkuNTkyeiIgZmlsbD0iIzAwNzRCRCIgY2xpcC1ydWxlPSJldmVub2RkIiBmaWxsLXJ1bGU9ImV2ZW5vZGQiLz4mI3hhOwk8cGF0aCBkPSJNMTA2LjMzMSwzMDAuMTA0YzAsMC0xOS4zNjcsMTQuMzM5LDEwLjIyMSwxNy4zOTcgICBjMzguMjcxLDMuOTUxLDY4LjQ4Myw0LjI3NSwxMjAuNzkyLTUuNzkyYzAsMCw3LjIxOCw3LjMzMiwxOC41ODUsMTEuMzM5QzE0OC45NDMsMzU0LjM0MiwyOS43ODIsMzI1LjUxLDEwNi4zMzEsMzAwLjEwNCAgIEwxMDYuMzMxLDMwMC4xMDR6IiBmaWxsPSIjMDA3NEJEIiBjbGlwLXJ1bGU9ImV2ZW5vZGQiIGZpbGwtcnVsZT0iZXZlbm9kZCIvPiYjeGE7CTxwYXRoIGQ9Ik0xOTcuNDk0LDIxNi4xNDVjMjEuODE4LDI1LjExNS01LjcyMSw0Ny42OTctNS43MjEsNDcuNjk3ICAgczU1LjM2Ny0yOC41NzcsMjkuOTQ1LTY0LjM4Yy0yMy43NTItMzMuMzczLTQxLjk2Mi00OS45NTEsNTYuNjIzLTEwNy4xMjRDMjc4LjM0Miw5Mi4zMzgsMTIzLjU4NywxMzAuOTc5LDE5Ny40OTQsMjE2LjE0NSAgIEwxOTcuNDk0LDIxNi4xNDV6IiBmaWxsPSIjRUEyRDJFIiBjbGlwLXJ1bGU9ImV2ZW5vZGQiIGZpbGwtcnVsZT0iZXZlbm9kZCIvPiYjeGE7CTxwYXRoIGQ9Ik0zMTQuNTQyLDM4Ni4yMDJjMCwwLDEyLjc4MSwxMC41MzYtMTQuMDc3LDE4LjY4NCAgIGMtNTEuMDcxLDE1LjQ2OS0yMTIuNjA0LDIwLjEzNS0yNTcuNDcsMC42MTljLTE2LjExNy03LjAyLDE0LjEyMS0xNi43NSwyMy42MzUtMTguODA1YzkuOTItMi4xNDYsMTUuNTg0LTEuNzU0LDE1LjU4NC0xLjc1NCAgIGMtMTcuOTM3LTEyLjYzMS0xMTUuOTM1LDI0LjgwNy00OS43NzIsMzUuNTQ0QzIxMi44NzEsNDQ5LjczNiwzNjEuMzM3LDQwNy4zMTcsMzE0LjU0MiwzODYuMjAyTDMxNC41NDIsMzg2LjIwMnoiIGZpbGw9IiMwMDc0QkQiIGNsaXAtcnVsZT0iZXZlbm9kZCIgZmlsbC1ydWxlPSJldmVub2RkIi8+JiN4YTsJPHBhdGggZD0iTTEyNS40NiwyNDguODIyYzAsMC04Mi4xNTUsMTkuNTE5LTI5LjA5MiwyNi42MTMgICBjMjIuNDEyLDIuOTk5LDY3LjA2MywyLjMwOSwxMDguNjg1LTEuMTgzYzM0LjAwNi0yLjg1NCw2OC4xMzMtOC45NTgsNjguMTMzLTguOTU4cy0xMS45ODIsNS4xNC0yMC42NTcsMTEuMDYgICBDMTY5LjA4NSwyOTguMzAxLDcuOTE3LDI4OC4wOCw1NC4zMjIsMjY1LjY0MkM5My41NDksMjQ2LjY2NSwxMjUuNDYsMjQ4LjgyMiwxMjUuNDYsMjQ4LjgyMkwxMjUuNDYsMjQ4LjgyMnoiIGZpbGw9IiMwMDc0QkQiIGNsaXAtcnVsZT0iZXZlbm9kZCIgZmlsbC1ydWxlPSJldmVub2RkIi8+JiN4YTsJPHBhdGggZD0iTTI3Mi44NDYsMzMxLjE5OGM4NC44MTgtNDQuMDYzLDQ1LjU5Ny04Ni40MTIsMTguMjIzLTgwLjcwOCAgIGMtNi42OTQsMS4zOTctOS42OTcsMi42MDctOS42OTcsMi42MDdzMi40OTQtMy45MDcsNy4yNDMtNS41ODhjNTQuMTU1LTE5LjAzLDk1Ljc5NCw1Ni4xNDYtMTcuNDY0LDg1LjkxOSAgIEMyNzEuMTUsMzMzLjQyOCwyNzIuNDUzLDMzMi4yNDgsMjcyLjg0NiwzMzEuMTk4TDI3Mi44NDYsMzMxLjE5OHoiIGZpbGw9IiMwMDc0QkQiIGNsaXAtcnVsZT0iZXZlbm9kZCIgZmlsbC1ydWxlPSJldmVub2RkIi8+JiN4YTsJPHBhdGggZD0iTTIyMS43MTksMGMwLDAsNDYuOTYzLDQ2Ljk5LTQ0LjU1NywxMTkuMjI3ICAgYy03My4zOTMsNTcuOTY5LTE2LjczNCw5MS4wMDktMC4wMjYsMTI4Ljc3OGMtNDIuODQ1LTM4LjY1My03NC4yNzEtNzIuNjg0LTUzLjE5Mi0xMDQuMzUyICAgQzE1NC44OTgsOTcuMTc0LDI0MC42NjMsNzQuNjMyLDIyMS43MTksMEwyMjEuNzE5LDB6IiBmaWxsPSIjRUEyRDJFIiBjbGlwLXJ1bGU9ImV2ZW5vZGQiIGZpbGwtcnVsZT0iZXZlbm9kZCIvPiYjeGE7CTxwYXRoIGQ9Ik0xMzMuNzk5LDQ1MC42MzdjODEuMzk3LDUuMjA0LDIwNi40MjYtMi44OTYsMjA5LjM4NS00MS40MTUgICBjMCwwLTUuNjg4LDE0LjYwMi02Ny4yNzYsMjYuMTg4Yy02OS40ODEsMTMuMDgxLTE1NS4xOTcsMTEuNTU4LTIwNi4wMTYsMy4xNjdDNjkuODkyLDQzOC41NzcsODAuMzAzLDQ0Ny4xOTQsMTMzLjc5OSw0NTAuNjM3ICAgTDEzMy43OTksNDUwLjYzN3oiIGZpbGw9IiMwMDc0QkQiIGNsaXAtcnVsZT0iZXZlbm9kZCIgZmlsbC1ydWxlPSJldmVub2RkIi8+JiN4YTsJPHBhdGggZD0iTTMzOS40MjYsNTE5LjcxNmgtMi40Nzl2LTEuMzg1aDYuNjc2djEuMzg1aC0yLjQ2OXY2LjkyOGgtMS43MjkgICBWNTE5LjcxNkwzMzkuNDI2LDUxOS43MTZMMzM5LjQyNiw1MTkuNzE2eiBNMzUyLjc1Niw1MjAuMDY3aC0wLjAzMmwtMi40NjEsNi41NzZoLTEuMTMybC0yLjQ0Ni02LjU3NmgtMC4wMjV2Ni41NzZoLTEuNjM4di04LjMxMyAgIGgyLjQwMmwyLjI2NCw1Ljg4NWwyLjI3MS01Ljg4NWgyLjM4OHY4LjMxM2gtMS41OVY1MjAuMDY3TDM1Mi43NTYsNTIwLjA2N3oiIGZpbGw9IiNFQTJEMkUiIGNsaXAtcnVsZT0iZXZlbm9kZCIgZmlsbC1ydWxlPSJldmVub2RkIi8+JiN4YTsJPHBhdGggZD0iTTEyMC40NjEsNTk3LjgxM2MtNy42NzYsNi42NTQtMTUuNzkzLDEwLjM5Ni0yMy4wNzksMTAuMzk2ICAgYy0xMC4zNzgsMC0xNi4wMDctNi4yMzYtMTYuMDA3LTE2LjIxNmMwLTEwLjgwMyw2LjAyNy0xOC43MSwzMC4xNjMtMTguNzFoOC45MjNWNTk3LjgxM0wxMjAuNDYxLDU5Ny44MTNMMTIwLjQ2MSw1OTcuODEzeiAgICBNMTQxLjY1LDYyMS43MTZWNTQ3LjcyYzAtMTguOTE1LTEwLjc4Ny0zMS4zOTYtMzYuNzgyLTMxLjM5NmMtMTUuMTY4LDAtMjguNDY3LDMuNzUtMzkuMjc4LDguNTI1bDMuMTExLDEzLjEwNiAgIGM4LjUxNS0zLjEyNywxOS41MjYtNi4wMzEsMzAuMzM3LTYuMDMxYzE0Ljk3OCwwLDIxLjQyMyw2LjAzMSwyMS40MjMsMTguNTA1djkuMzU2aC03LjQ4NWMtMzYuMzgzLDAtNTIuNzk4LDE0LjExLTUyLjc5OCwzNS4zMzYgICBjMCwxOC4yODUsMTAuODE5LDI4LjY4MiwzMS4xODUsMjguNjgyYzEzLjA4OCwwLDIyLjg3LTUuNDA1LDMyLjAwMS0xMy4zMTVsMS42NjMsMTEuMjI4SDE0MS42NUwxNDEuNjUsNjIxLjcxNnoiIGZpbGw9IiNFQTJEMkUiIGNsaXAtcnVsZT0iZXZlbm9kZCIgZmlsbC1ydWxlPSJldmVub2RkIi8+JiN4YTsJPHBhdGggZD0iTTIxMi4zNjIsNjIxLjcxNmgtMjYuNDIzbC0zMS44MDctMTAzLjUwMmgyMy4wNzdsMTkuNzQzLDYzLjYgICBsNC4zOTEsMTkuMTA5YzkuOTY1LTI3LjYzOSwxNy4wMzItNTUuNzAxLDIwLjU2Ni04Mi43MDloMjIuNDQ1QzIzOC4zNTIsNTUyLjI5NCwyMjcuNTIzLDU4OS43MDYsMjEyLjM2Miw2MjEuNzE2TDIxMi4zNjIsNjIxLjcxNnoiIGZpbGw9IiNFQTJEMkUiIGNsaXAtcnVsZT0iZXZlbm9kZCIgZmlsbC1ydWxlPSJldmVub2RkIi8+JiN4YTsJPHBhdGggZD0iTTMxMy43NTUsNTk3LjgxM2MtNy43MDEsNi42NTQtMTUuODIsMTAuMzk2LTIzLjA4NiwxMC4zOTYgICBjLTEwLjM4MiwwLTE2LjAxMS02LjIzNi0xNi4wMTEtMTYuMjE2YzAtMTAuODAzLDYuMDM5LTE4LjcxLDMwLjE1NC0xOC43MWg4Ljk0MlY1OTcuODEzTDMxMy43NTUsNTk3LjgxM0wzMTMuNzU1LDU5Ny44MTN6ICAgIE0zMzQuOTUxLDYyMS43MTZWNTQ3LjcyYzAtMTguOTE1LTEwLjgxOC0zMS4zOTYtMzYuNzg5LTMxLjM5NmMtMTUuMTg4LDAtMjguNDg0LDMuNzUtMzkuMjk1LDguNTI1bDMuMTE2LDEzLjEwNiAgIGM4LjUxOS0zLjEyNywxOS41NDUtNi4wMzEsMzAuMzU1LTYuMDMxYzE0Ljk2LDAsMjEuNDE2LDYuMDMxLDIxLjQxNiwxOC41MDV2OS4zNTZoLTcuNDg1Yy0zNi4zOTEsMC01Mi44MDEsMTQuMTEtNTIuODAxLDM1LjMzNiAgIGMwLDE4LjI4NSwxMC44MDQsMjguNjgyLDMxLjE2OSwyOC42ODJjMTMuMDk5LDAsMjIuODYyLTUuNDA1LDMyLjAxOC0xMy4zMTVsMS42NzQsMTEuMjI4SDMzNC45NTFMMzM0Ljk1MSw2MjEuNzE2eiIgZmlsbD0iI0VBMkQyRSIgY2xpcC1ydWxlPSJldmVub2RkIiBmaWxsLXJ1bGU9ImV2ZW5vZGQiLz4mI3hhOwk8cGF0aCBkPSJNMzYuOTQxLDYzOS4zMDZjLTYuMDM3LDguODIxLTE1LjgsMTUuODA5LTI2LjQ3OSwxOS43NDkgICBMMCw2NDYuNzMxYzguMTM1LTQuMTc4LDE1LjEwMy0xMC45MTIsMTguMzQ1LTE3LjE4MmMyLjc5Ni01LjU4OSwzLjk2LTEyLjc3MywzLjk2LTI5Ljk3MVY0ODEuMzk4aDIyLjUxOXYxMTYuNTUxICAgQzQ0LjgyNCw2MjAuOTUsNDIuOTg4LDYzMC4yNDksMzYuOTQxLDYzOS4zMDZMMzYuOTQxLDYzOS4zMDZ6IiBmaWxsPSIjRUEyRDJFIiBjbGlwLXJ1bGU9ImV2ZW5vZGQiIGZpbGwtcnVsZT0iZXZlbm9kZCIvPiYjeGE7PC9nPiYjeGE7PC9zdmc+;fontSize=20;" parent="1" vertex="1">
          <mxGeometry x="1680" y="920" width="69.81" height="130" as="geometry" />
        </mxCell>
        <mxCell id="Oxx6fiZ2N93gh7QRnnVH-20" value="&lt;h2&gt;WS applicatif codification&lt;br&gt;&lt;/h2&gt;&lt;h2&gt;(côté workflow)&lt;br&gt;&lt;/h2&gt;&lt;h2&gt;/codification&lt;br&gt;&lt;/h2&gt;" style="rounded=1;whiteSpace=wrap;html=1;fillColor=#dae8fc;fontFamily=Work Sans;strokeColor=#6c8ebf;fontSource=https%3A%2F%2Ffonts.googleapis.com%2Fcss%3Ffamily%3DWork%2BSans;fontSize=20;" parent="1" vertex="1">
          <mxGeometry x="1192.75" y="-395" width="550" height="400" as="geometry" />
        </mxCell>
        <mxCell id="Oxx6fiZ2N93gh7QRnnVH-21" value="" style="shape=image;verticalLabelPosition=bottom;labelBackgroundColor=default;verticalAlign=top;aspect=fixed;imageAspect=0;image=data:image/svg+xml,PHN2ZyB4bWw6c3BhY2U9InByZXNlcnZlIiBvdmVyZmxvdz0idmlzaWJsZSIgdmlld0JveD0iMCAwIDM1NC4zNDYgNjU5LjA1NSIgaGVpZ2h0PSI2NTkuMDU1IiB3aWR0aD0iMzU0LjM0NiIgeG1sbnM6eGxpbms9Imh0dHA6Ly93d3cudzMub3JnLzE5OTkveGxpbmsiIHhtbG5zPSJodHRwOi8vd3d3LnczLm9yZy8yMDAwL3N2ZyIgaWQ9IkxheWVyXzEiIHZlcnNpb249IjEuMSI+JiN4YTs8Zz4mI3hhOwk8cGF0aCBkPSJNMTE3LjE1MSwzNDkuNTkyYzAsMC0xNy4yNjUsMTAuMDQ5LDEyLjMwMSwxMy40NCAgIGMzNS44MjQsNC4wOSw1NC4xMywzLjUwMSw5My41OTYtMy45NTljMCwwLDEwLjM5Nyw2LjUwNCwyNC44OTIsMTIuMTM3QzE1OS40MzksNDA5LjEyNyw0Ny42NDQsMzY5LjAxMywxMTcuMTUxLDM0OS41OTIgICBMMTE3LjE1MSwzNDkuNTkyeiIgZmlsbD0iIzAwNzRCRCIgY2xpcC1ydWxlPSJldmVub2RkIiBmaWxsLXJ1bGU9ImV2ZW5vZGQiLz4mI3hhOwk8cGF0aCBkPSJNMTA2LjMzMSwzMDAuMTA0YzAsMC0xOS4zNjcsMTQuMzM5LDEwLjIyMSwxNy4zOTcgICBjMzguMjcxLDMuOTUxLDY4LjQ4Myw0LjI3NSwxMjAuNzkyLTUuNzkyYzAsMCw3LjIxOCw3LjMzMiwxOC41ODUsMTEuMzM5QzE0OC45NDMsMzU0LjM0MiwyOS43ODIsMzI1LjUxLDEwNi4zMzEsMzAwLjEwNCAgIEwxMDYuMzMxLDMwMC4xMDR6IiBmaWxsPSIjMDA3NEJEIiBjbGlwLXJ1bGU9ImV2ZW5vZGQiIGZpbGwtcnVsZT0iZXZlbm9kZCIvPiYjeGE7CTxwYXRoIGQ9Ik0xOTcuNDk0LDIxNi4xNDVjMjEuODE4LDI1LjExNS01LjcyMSw0Ny42OTctNS43MjEsNDcuNjk3ICAgczU1LjM2Ny0yOC41NzcsMjkuOTQ1LTY0LjM4Yy0yMy43NTItMzMuMzczLTQxLjk2Mi00OS45NTEsNTYuNjIzLTEwNy4xMjRDMjc4LjM0Miw5Mi4zMzgsMTIzLjU4NywxMzAuOTc5LDE5Ny40OTQsMjE2LjE0NSAgIEwxOTcuNDk0LDIxNi4xNDV6IiBmaWxsPSIjRUEyRDJFIiBjbGlwLXJ1bGU9ImV2ZW5vZGQiIGZpbGwtcnVsZT0iZXZlbm9kZCIvPiYjeGE7CTxwYXRoIGQ9Ik0zMTQuNTQyLDM4Ni4yMDJjMCwwLDEyLjc4MSwxMC41MzYtMTQuMDc3LDE4LjY4NCAgIGMtNTEuMDcxLDE1LjQ2OS0yMTIuNjA0LDIwLjEzNS0yNTcuNDcsMC42MTljLTE2LjExNy03LjAyLDE0LjEyMS0xNi43NSwyMy42MzUtMTguODA1YzkuOTItMi4xNDYsMTUuNTg0LTEuNzU0LDE1LjU4NC0xLjc1NCAgIGMtMTcuOTM3LTEyLjYzMS0xMTUuOTM1LDI0LjgwNy00OS43NzIsMzUuNTQ0QzIxMi44NzEsNDQ5LjczNiwzNjEuMzM3LDQwNy4zMTcsMzE0LjU0MiwzODYuMjAyTDMxNC41NDIsMzg2LjIwMnoiIGZpbGw9IiMwMDc0QkQiIGNsaXAtcnVsZT0iZXZlbm9kZCIgZmlsbC1ydWxlPSJldmVub2RkIi8+JiN4YTsJPHBhdGggZD0iTTEyNS40NiwyNDguODIyYzAsMC04Mi4xNTUsMTkuNTE5LTI5LjA5MiwyNi42MTMgICBjMjIuNDEyLDIuOTk5LDY3LjA2MywyLjMwOSwxMDguNjg1LTEuMTgzYzM0LjAwNi0yLjg1NCw2OC4xMzMtOC45NTgsNjguMTMzLTguOTU4cy0xMS45ODIsNS4xNC0yMC42NTcsMTEuMDYgICBDMTY5LjA4NSwyOTguMzAxLDcuOTE3LDI4OC4wOCw1NC4zMjIsMjY1LjY0MkM5My41NDksMjQ2LjY2NSwxMjUuNDYsMjQ4LjgyMiwxMjUuNDYsMjQ4LjgyMkwxMjUuNDYsMjQ4LjgyMnoiIGZpbGw9IiMwMDc0QkQiIGNsaXAtcnVsZT0iZXZlbm9kZCIgZmlsbC1ydWxlPSJldmVub2RkIi8+JiN4YTsJPHBhdGggZD0iTTI3Mi44NDYsMzMxLjE5OGM4NC44MTgtNDQuMDYzLDQ1LjU5Ny04Ni40MTIsMTguMjIzLTgwLjcwOCAgIGMtNi42OTQsMS4zOTctOS42OTcsMi42MDctOS42OTcsMi42MDdzMi40OTQtMy45MDcsNy4yNDMtNS41ODhjNTQuMTU1LTE5LjAzLDk1Ljc5NCw1Ni4xNDYtMTcuNDY0LDg1LjkxOSAgIEMyNzEuMTUsMzMzLjQyOCwyNzIuNDUzLDMzMi4yNDgsMjcyLjg0NiwzMzEuMTk4TDI3Mi44NDYsMzMxLjE5OHoiIGZpbGw9IiMwMDc0QkQiIGNsaXAtcnVsZT0iZXZlbm9kZCIgZmlsbC1ydWxlPSJldmVub2RkIi8+JiN4YTsJPHBhdGggZD0iTTIyMS43MTksMGMwLDAsNDYuOTYzLDQ2Ljk5LTQ0LjU1NywxMTkuMjI3ICAgYy03My4zOTMsNTcuOTY5LTE2LjczNCw5MS4wMDktMC4wMjYsMTI4Ljc3OGMtNDIuODQ1LTM4LjY1My03NC4yNzEtNzIuNjg0LTUzLjE5Mi0xMDQuMzUyICAgQzE1NC44OTgsOTcuMTc0LDI0MC42NjMsNzQuNjMyLDIyMS43MTksMEwyMjEuNzE5LDB6IiBmaWxsPSIjRUEyRDJFIiBjbGlwLXJ1bGU9ImV2ZW5vZGQiIGZpbGwtcnVsZT0iZXZlbm9kZCIvPiYjeGE7CTxwYXRoIGQ9Ik0xMzMuNzk5LDQ1MC42MzdjODEuMzk3LDUuMjA0LDIwNi40MjYtMi44OTYsMjA5LjM4NS00MS40MTUgICBjMCwwLTUuNjg4LDE0LjYwMi02Ny4yNzYsMjYuMTg4Yy02OS40ODEsMTMuMDgxLTE1NS4xOTcsMTEuNTU4LTIwNi4wMTYsMy4xNjdDNjkuODkyLDQzOC41NzcsODAuMzAzLDQ0Ny4xOTQsMTMzLjc5OSw0NTAuNjM3ICAgTDEzMy43OTksNDUwLjYzN3oiIGZpbGw9IiMwMDc0QkQiIGNsaXAtcnVsZT0iZXZlbm9kZCIgZmlsbC1ydWxlPSJldmVub2RkIi8+JiN4YTsJPHBhdGggZD0iTTMzOS40MjYsNTE5LjcxNmgtMi40Nzl2LTEuMzg1aDYuNjc2djEuMzg1aC0yLjQ2OXY2LjkyOGgtMS43MjkgICBWNTE5LjcxNkwzMzkuNDI2LDUxOS43MTZMMzM5LjQyNiw1MTkuNzE2eiBNMzUyLjc1Niw1MjAuMDY3aC0wLjAzMmwtMi40NjEsNi41NzZoLTEuMTMybC0yLjQ0Ni02LjU3NmgtMC4wMjV2Ni41NzZoLTEuNjM4di04LjMxMyAgIGgyLjQwMmwyLjI2NCw1Ljg4NWwyLjI3MS01Ljg4NWgyLjM4OHY4LjMxM2gtMS41OVY1MjAuMDY3TDM1Mi43NTYsNTIwLjA2N3oiIGZpbGw9IiNFQTJEMkUiIGNsaXAtcnVsZT0iZXZlbm9kZCIgZmlsbC1ydWxlPSJldmVub2RkIi8+JiN4YTsJPHBhdGggZD0iTTEyMC40NjEsNTk3LjgxM2MtNy42NzYsNi42NTQtMTUuNzkzLDEwLjM5Ni0yMy4wNzksMTAuMzk2ICAgYy0xMC4zNzgsMC0xNi4wMDctNi4yMzYtMTYuMDA3LTE2LjIxNmMwLTEwLjgwMyw2LjAyNy0xOC43MSwzMC4xNjMtMTguNzFoOC45MjNWNTk3LjgxM0wxMjAuNDYxLDU5Ny44MTNMMTIwLjQ2MSw1OTcuODEzeiAgICBNMTQxLjY1LDYyMS43MTZWNTQ3LjcyYzAtMTguOTE1LTEwLjc4Ny0zMS4zOTYtMzYuNzgyLTMxLjM5NmMtMTUuMTY4LDAtMjguNDY3LDMuNzUtMzkuMjc4LDguNTI1bDMuMTExLDEzLjEwNiAgIGM4LjUxNS0zLjEyNywxOS41MjYtNi4wMzEsMzAuMzM3LTYuMDMxYzE0Ljk3OCwwLDIxLjQyMyw2LjAzMSwyMS40MjMsMTguNTA1djkuMzU2aC03LjQ4NWMtMzYuMzgzLDAtNTIuNzk4LDE0LjExLTUyLjc5OCwzNS4zMzYgICBjMCwxOC4yODUsMTAuODE5LDI4LjY4MiwzMS4xODUsMjguNjgyYzEzLjA4OCwwLDIyLjg3LTUuNDA1LDMyLjAwMS0xMy4zMTVsMS42NjMsMTEuMjI4SDE0MS42NUwxNDEuNjUsNjIxLjcxNnoiIGZpbGw9IiNFQTJEMkUiIGNsaXAtcnVsZT0iZXZlbm9kZCIgZmlsbC1ydWxlPSJldmVub2RkIi8+JiN4YTsJPHBhdGggZD0iTTIxMi4zNjIsNjIxLjcxNmgtMjYuNDIzbC0zMS44MDctMTAzLjUwMmgyMy4wNzdsMTkuNzQzLDYzLjYgICBsNC4zOTEsMTkuMTA5YzkuOTY1LTI3LjYzOSwxNy4wMzItNTUuNzAxLDIwLjU2Ni04Mi43MDloMjIuNDQ1QzIzOC4zNTIsNTUyLjI5NCwyMjcuNTIzLDU4OS43MDYsMjEyLjM2Miw2MjEuNzE2TDIxMi4zNjIsNjIxLjcxNnoiIGZpbGw9IiNFQTJEMkUiIGNsaXAtcnVsZT0iZXZlbm9kZCIgZmlsbC1ydWxlPSJldmVub2RkIi8+JiN4YTsJPHBhdGggZD0iTTMxMy43NTUsNTk3LjgxM2MtNy43MDEsNi42NTQtMTUuODIsMTAuMzk2LTIzLjA4NiwxMC4zOTYgICBjLTEwLjM4MiwwLTE2LjAxMS02LjIzNi0xNi4wMTEtMTYuMjE2YzAtMTAuODAzLDYuMDM5LTE4LjcxLDMwLjE1NC0xOC43MWg4Ljk0MlY1OTcuODEzTDMxMy43NTUsNTk3LjgxM0wzMTMuNzU1LDU5Ny44MTN6ICAgIE0zMzQuOTUxLDYyMS43MTZWNTQ3LjcyYzAtMTguOTE1LTEwLjgxOC0zMS4zOTYtMzYuNzg5LTMxLjM5NmMtMTUuMTg4LDAtMjguNDg0LDMuNzUtMzkuMjk1LDguNTI1bDMuMTE2LDEzLjEwNiAgIGM4LjUxOS0zLjEyNywxOS41NDUtNi4wMzEsMzAuMzU1LTYuMDMxYzE0Ljk2LDAsMjEuNDE2LDYuMDMxLDIxLjQxNiwxOC41MDV2OS4zNTZoLTcuNDg1Yy0zNi4zOTEsMC01Mi44MDEsMTQuMTEtNTIuODAxLDM1LjMzNiAgIGMwLDE4LjI4NSwxMC44MDQsMjguNjgyLDMxLjE2OSwyOC42ODJjMTMuMDk5LDAsMjIuODYyLTUuNDA1LDMyLjAxOC0xMy4zMTVsMS42NzQsMTEuMjI4SDMzNC45NTFMMzM0Ljk1MSw2MjEuNzE2eiIgZmlsbD0iI0VBMkQyRSIgY2xpcC1ydWxlPSJldmVub2RkIiBmaWxsLXJ1bGU9ImV2ZW5vZGQiLz4mI3hhOwk8cGF0aCBkPSJNMzYuOTQxLDYzOS4zMDZjLTYuMDM3LDguODIxLTE1LjgsMTUuODA5LTI2LjQ3OSwxOS43NDkgICBMMCw2NDYuNzMxYzguMTM1LTQuMTc4LDE1LjEwMy0xMC45MTIsMTguMzQ1LTE3LjE4MmMyLjc5Ni01LjU4OSwzLjk2LTEyLjc3MywzLjk2LTI5Ljk3MVY0ODEuMzk4aDIyLjUxOXYxMTYuNTUxICAgQzQ0LjgyNCw2MjAuOTUsNDIuOTg4LDYzMC4yNDksMzYuOTQxLDYzOS4zMDZMMzYuOTQxLDYzOS4zMDZ6IiBmaWxsPSIjRUEyRDJFIiBjbGlwLXJ1bGU9ImV2ZW5vZGQiIGZpbGwtcnVsZT0iZXZlbm9kZCIvPiYjeGE7PC9nPiYjeGE7PC9zdmc+;fontSize=20;" parent="1" vertex="1">
          <mxGeometry x="1630" y="-130" width="69.81" height="130" as="geometry" />
        </mxCell>
        <mxCell id="Oxx6fiZ2N93gh7QRnnVH-22" value="" style="shape=process;whiteSpace=wrap;html=1;backgroundOutline=1;fontSize=18;" parent="1" vertex="1">
          <mxGeometry x="700" y="-716" width="330" height="315" as="geometry" />
        </mxCell>
        <mxCell id="Oxx6fiZ2N93gh7QRnnVH-23" value="&lt;div align=&quot;left&quot;&gt;&lt;font face=&quot;Work sans&quot;&gt;{&amp;nbsp; &lt;br&gt;&lt;/font&gt;&lt;/div&gt;&lt;div align=&quot;left&quot;&gt;&lt;font face=&quot;Work sans&quot;&gt;&quot;libelle&quot;: &quot;&quot;,&lt;/font&gt;&lt;/div&gt;&lt;div align=&quot;left&quot;&gt;&lt;font face=&quot;Work sans&quot;&gt;&quot;activ_nat_lib_et&quot;: &quot;&quot;,&lt;/font&gt;&lt;/div&gt;&lt;div align=&quot;left&quot;&gt;&lt;font face=&quot;Work sans&quot;&gt;&quot;actic_sec_agri_et&quot;: &quot;&quot;,&lt;/font&gt;&lt;/div&gt;&lt;div align=&quot;left&quot;&gt;&lt;font face=&quot;Work sans&quot;&gt;&quot;TYP&quot;: &quot;&quot;,&lt;/font&gt;&lt;/div&gt;&lt;div align=&quot;left&quot;&gt;&lt;font face=&quot;Work sans&quot;&gt;&quot;NAT&quot;: &quot;&quot;,&lt;/font&gt;&lt;/div&gt;&lt;div align=&quot;left&quot;&gt;&lt;font face=&quot;Work sans&quot;&gt;&quot;SRF&quot;: &quot;&quot;,&lt;/font&gt;&lt;/div&gt;&lt;div align=&quot;left&quot;&gt;&lt;font face=&quot;Work sans&quot;&gt;&quot;EVT&quot;: &quot;&quot;,&lt;/font&gt;&lt;/div&gt;&lt;div align=&quot;left&quot;&gt;&lt;font face=&quot;Work sans&quot;&gt;&quot;CJ&quot;: &quot;&quot;,&lt;/font&gt;&lt;/div&gt;&lt;div align=&quot;left&quot;&gt;&lt;font face=&quot;Work sans&quot;&gt;&quot;CRT&quot;: &quot;&quot;&lt;br&gt;&lt;/font&gt;&lt;/div&gt;&lt;div align=&quot;left&quot;&gt;&lt;font face=&quot;Work sans&quot;&gt;&quot;numberOfPredictions&quot;: &quot;&quot;&lt;br&gt;&lt;/font&gt;&lt;/div&gt;&lt;div align=&quot;left&quot;&gt;&lt;font face=&quot;Work sans&quot;&gt;}&lt;/font&gt;&lt;/div&gt;&lt;div align=&quot;left&quot;&gt;&lt;font face=&quot;Work sans&quot;&gt;&amp;nbsp;&lt;/font&gt;&lt;/div&gt;" style="text;html=1;align=center;verticalAlign=middle;resizable=0;points=[];autosize=1;strokeColor=none;fillColor=none;fontSize=20;" parent="1" vertex="1">
          <mxGeometry x="730" y="-725.5" width="280" height="330" as="geometry" />
        </mxCell>
        <mxCell id="Oxx6fiZ2N93gh7QRnnVH-29" value="" style="endArrow=classic;html=1;rounded=0;exitX=0;exitY=0.5;exitDx=0;exitDy=0;entryX=-0.002;entryY=0.691;entryDx=0;entryDy=0;entryPerimeter=0;" parent="1" target="Oxx6fiZ2N93gh7QRnnVH-20" edge="1">
          <mxGeometry width="50" height="50" relative="1" as="geometry">
            <mxPoint x="-37.25000000000068" y="-117.40000000000055" as="sourcePoint" />
            <mxPoint x="1172.75" y="-117.5" as="targetPoint" />
          </mxGeometry>
        </mxCell>
        <mxCell id="Oxx6fiZ2N93gh7QRnnVH-30" value="&lt;font style=&quot;font-size: 20px;&quot; face=&quot;Work sans&quot;&gt;&lt;b&gt;&lt;i&gt;Réponse de l&#39;API&lt;/i&gt;&lt;/b&gt;&lt;/font&gt;" style="text;html=1;align=center;verticalAlign=middle;resizable=0;points=[];autosize=1;strokeColor=none;fillColor=none;fontSize=18;" parent="1" vertex="1">
          <mxGeometry x="480" y="-180" width="190" height="40" as="geometry" />
        </mxCell>
        <mxCell id="Oxx6fiZ2N93gh7QRnnVH-34" value="" style="endArrow=classic;html=1;rounded=0;exitX=1;exitY=0.5;exitDx=0;exitDy=0;entryX=-0.006;entryY=0.484;entryDx=0;entryDy=0;entryPerimeter=0;" parent="1" edge="1">
          <mxGeometry width="50" height="50" relative="1" as="geometry">
            <mxPoint x="699" y="-561.21" as="sourcePoint" />
            <mxPoint x="381" y="-561.21" as="targetPoint" />
          </mxGeometry>
        </mxCell>
        <mxCell id="Oxx6fiZ2N93gh7QRnnVH-35" value="&lt;font style=&quot;font-size: 20px;&quot; face=&quot;Work sans&quot;&gt;&lt;b&gt;&lt;i&gt;Appel à&amp;nbsp; l&#39;API&lt;/i&gt;&lt;/b&gt;&lt;/font&gt;" style="text;html=1;align=center;verticalAlign=middle;resizable=0;points=[];autosize=1;strokeColor=none;fillColor=none;fontSize=18;" parent="1" vertex="1">
          <mxGeometry x="499.80999999999995" y="-610" width="160" height="40" as="geometry" />
        </mxCell>
        <mxCell id="Oxx6fiZ2N93gh7QRnnVH-36" value="" style="endArrow=none;html=1;rounded=0;entryX=1;entryY=0.5;entryDx=0;entryDy=0;" parent="1" target="Oxx6fiZ2N93gh7QRnnVH-22" edge="1">
          <mxGeometry width="50" height="50" relative="1" as="geometry">
            <mxPoint x="1191" y="-200" as="sourcePoint" />
            <mxPoint x="200" y="-370" as="targetPoint" />
            <Array as="points">
              <mxPoint x="1120" y="-200" />
              <mxPoint x="1120" y="-560" />
            </Array>
          </mxGeometry>
        </mxCell>
        <mxCell id="Oxx6fiZ2N93gh7QRnnVH-38" value="" style="shape=process;whiteSpace=wrap;html=1;backgroundOutline=1;fontSize=18;" parent="1" vertex="1">
          <mxGeometry x="-2041" y="159.5" width="330" height="315" as="geometry" />
        </mxCell>
        <mxCell id="Oxx6fiZ2N93gh7QRnnVH-39" value="&lt;div align=&quot;left&quot;&gt;&lt;font face=&quot;Work sans&quot;&gt;[&lt;/font&gt;&lt;/div&gt;&lt;div align=&quot;left&quot;&gt;&lt;font face=&quot;Work sans&quot;&gt;{&amp;nbsp; &lt;br&gt;&lt;/font&gt;&lt;/div&gt;&lt;div align=&quot;left&quot;&gt;&lt;font face=&quot;Work sans&quot;&gt;&quot;code&quot;: &quot;&quot;,&lt;/font&gt;&lt;/div&gt;&lt;div align=&quot;left&quot;&gt;&lt;font face=&quot;Work sans&quot;&gt;&quot;libelle&quot;: &quot;&quot;,&lt;/font&gt;&lt;/div&gt;&lt;div align=&quot;left&quot;&gt;&lt;font face=&quot;Work sans&quot;&gt;&quot;codeRetour&quot;: &quot;&quot;,&lt;/font&gt;&lt;/div&gt;&lt;div align=&quot;left&quot;&gt;&lt;font face=&quot;Work sans&quot;&gt;&quot;probabilite&quot;: &quot;&quot;,&lt;/font&gt;&lt;/div&gt;&lt;div align=&quot;left&quot;&gt;&lt;font face=&quot;Work sans&quot;&gt;&quot;libelleNettoye&quot;: &quot;&quot;,&lt;/font&gt;&lt;/div&gt;&lt;div align=&quot;left&quot;&gt;&lt;font face=&quot;Work sans&quot;&gt;&quot;MLversion&quot;: &quot;&quot;,&lt;/font&gt;&lt;/div&gt;&lt;div align=&quot;left&quot;&gt;&lt;font face=&quot;Work sans&quot;&gt;&quot;NAFversion&quot;: &quot;&quot;&lt;br&gt;&lt;/font&gt;&lt;/div&gt;&lt;div align=&quot;left&quot;&gt;&lt;font face=&quot;Work sans&quot;&gt;}, ... ,&amp;nbsp;&lt;/font&gt;&lt;/div&gt;&lt;div align=&quot;left&quot;&gt;&lt;font face=&quot;Work sans&quot;&gt;{&quot;code&quot;: &quot;string&quot;, ...}&lt;/font&gt;&lt;/div&gt;&lt;div align=&quot;left&quot;&gt;&lt;font face=&quot;Work sans&quot;&gt;]&lt;br&gt;&lt;/font&gt;&lt;/div&gt;&lt;div align=&quot;left&quot;&gt;&lt;font face=&quot;Work sans&quot;&gt;&lt;br&gt;&lt;/font&gt;&lt;/div&gt;&lt;div align=&quot;left&quot;&gt;&lt;font face=&quot;Work sans&quot;&gt;&amp;nbsp;&lt;/font&gt;&lt;/div&gt;" style="text;html=1;align=center;verticalAlign=middle;resizable=0;points=[];autosize=1;strokeColor=none;fillColor=none;fontSize=20;" parent="1" vertex="1">
          <mxGeometry x="-1980" y="149.5" width="210" height="350" as="geometry" />
        </mxCell>
        <mxCell id="Oxx6fiZ2N93gh7QRnnVH-40" value="" style="verticalLabelPosition=bottom;html=1;verticalAlign=top;align=center;shape=mxgraph.azure.laptop;pointerEvents=1;fillColor=#0050ef;fontColor=#ffffff;strokeColor=#001DBC;" parent="1" vertex="1">
          <mxGeometry x="-2035" y="800" width="310.19" height="200" as="geometry" />
        </mxCell>
        <mxCell id="Oxx6fiZ2N93gh7QRnnVH-41" value="&lt;h1&gt;&lt;b&gt;IHM&lt;/b&gt;&lt;/h1&gt;" style="text;html=1;align=center;verticalAlign=middle;resizable=0;points=[];autosize=1;strokeColor=none;fillColor=none;fontSize=18;" parent="1" vertex="1">
          <mxGeometry x="-1925" y="830" width="100" height="110" as="geometry" />
        </mxCell>
        <mxCell id="Oxx6fiZ2N93gh7QRnnVH-43" value="" style="edgeStyle=orthogonalEdgeStyle;rounded=0;orthogonalLoop=1;jettySize=auto;html=1;" parent="1" edge="1">
          <mxGeometry relative="1" as="geometry">
            <mxPoint x="-1880" y="474.5" as="sourcePoint" />
            <mxPoint x="-1880" y="770" as="targetPoint" />
          </mxGeometry>
        </mxCell>
        <mxCell id="Oxx6fiZ2N93gh7QRnnVH-44" value="&lt;div align=&quot;left&quot;&gt;&lt;font face=&quot;Work sans&quot;&gt;{&amp;nbsp; &lt;br&gt;&lt;/font&gt;&lt;/div&gt;&lt;div align=&quot;left&quot;&gt;&lt;font face=&quot;Work sans&quot;&gt;&quot;code&quot;: &quot;string&quot;,&lt;/font&gt;&lt;/div&gt;&lt;div align=&quot;left&quot;&gt;&lt;font face=&quot;Work sans&quot;&gt;&quot;codeRetour&quot;: &quot;string&quot;,&lt;/font&gt;&lt;/div&gt;&lt;div align=&quot;left&quot;&gt;&lt;font face=&quot;Work sans&quot;&gt;&quot;nomEnvironnementCodage&quot;: &quot;string&quot;,&lt;/font&gt;&lt;/div&gt;&lt;div align=&quot;left&quot;&gt;&lt;font face=&quot;Work sans&quot;&gt;&quot;MLversion&quot;: &quot;string&quot;,&lt;/font&gt;&lt;/div&gt;&lt;div align=&quot;left&quot;&gt;&lt;font face=&quot;Work sans&quot;&gt;&quot;NAFversion&quot;: &quot;string&quot;&lt;/font&gt;&lt;/div&gt;&lt;div align=&quot;left&quot;&gt;&lt;font face=&quot;Work sans&quot;&gt;}&lt;/font&gt;&lt;/div&gt;&lt;div align=&quot;left&quot;&gt;&lt;font face=&quot;Work sans&quot;&gt;&amp;nbsp;&lt;/font&gt;&lt;/div&gt;" style="shape=process;whiteSpace=wrap;html=1;backgroundOutline=1;fontSize=18;" parent="1" vertex="1">
          <mxGeometry x="1330" y="167" width="330" height="315" as="geometry" />
        </mxCell>
        <mxCell id="Oxx6fiZ2N93gh7QRnnVH-46" value="" style="shape=process;whiteSpace=wrap;html=1;backgroundOutline=1;fontSize=18;" parent="1" vertex="1">
          <mxGeometry x="1310" y="-960" width="330" height="315" as="geometry" />
        </mxCell>
        <mxCell id="Oxx6fiZ2N93gh7QRnnVH-47" value="" style="shape=process;whiteSpace=wrap;html=1;backgroundOutline=1;fontSize=18;" parent="1" vertex="1">
          <mxGeometry x="-2035" y="-925" width="330" height="315" as="geometry" />
        </mxCell>
        <mxCell id="Oxx6fiZ2N93gh7QRnnVH-48" value="" style="endArrow=classic;html=1;rounded=0;exitX=0.5;exitY=1;exitDx=0;exitDy=0;entryX=0.5;entryY=0;entryDx=0;entryDy=0;" parent="1" source="Oxx6fiZ2N93gh7QRnnVH-47" target="HjJ79D1jQwEfLb-Sxw5U-8" edge="1">
          <mxGeometry width="50" height="50" relative="1" as="geometry">
            <mxPoint x="-230" y="60" as="sourcePoint" />
            <mxPoint x="-180" y="10" as="targetPoint" />
          </mxGeometry>
        </mxCell>
        <mxCell id="Oxx6fiZ2N93gh7QRnnVH-49" value="" style="endArrow=classic;html=1;rounded=0;exitX=0.5;exitY=1;exitDx=0;exitDy=0;" parent="1" edge="1">
          <mxGeometry width="50" height="50" relative="1" as="geometry">
            <mxPoint x="1477.5" y="-645" as="sourcePoint" />
            <mxPoint x="1473" y="-395" as="targetPoint" />
          </mxGeometry>
        </mxCell>
        <mxCell id="Oxx6fiZ2N93gh7QRnnVH-51" value="" style="endArrow=classic;html=1;rounded=0;entryX=0.455;entryY=0.01;entryDx=0;entryDy=0;entryPerimeter=0;" parent="1" edge="1" target="Oxx6fiZ2N93gh7QRnnVH-44">
          <mxGeometry width="50" height="50" relative="1" as="geometry">
            <mxPoint x="1480.5" y="5" as="sourcePoint" />
            <mxPoint x="1480" y="160" as="targetPoint" />
          </mxGeometry>
        </mxCell>
        <mxCell id="PrI9KaRf1beF4u_ZDY7f-16" value="" style="edgeStyle=orthogonalEdgeStyle;rounded=0;orthogonalLoop=1;jettySize=auto;html=1;entryX=0;entryY=0.5;entryDx=0;entryDy=0;" edge="1" parent="1" source="PrI9KaRf1beF4u_ZDY7f-5" target="PrI9KaRf1beF4u_ZDY7f-6">
          <mxGeometry relative="1" as="geometry">
            <mxPoint x="875" y="870" as="targetPoint" />
          </mxGeometry>
        </mxCell>
        <mxCell id="PrI9KaRf1beF4u_ZDY7f-5" value="&lt;h2&gt;WS applicatif codification&lt;br&gt;&lt;/h2&gt;&lt;h2&gt;(côté workflow)&lt;br&gt;&lt;/h2&gt;&lt;h2&gt;/codification-nouvelle-naf&lt;br&gt;&lt;/h2&gt;" style="rounded=1;whiteSpace=wrap;html=1;fillColor=#dae8fc;fontFamily=Work Sans;strokeColor=#6c8ebf;fontSource=https%3A%2F%2Ffonts.googleapis.com%2Fcss%3Ffamily%3DWork%2BSans;fontSize=20;" vertex="1" parent="1">
          <mxGeometry x="10" y="670" width="550" height="400" as="geometry" />
        </mxCell>
        <mxCell id="PrI9KaRf1beF4u_ZDY7f-18" value="" style="edgeStyle=orthogonalEdgeStyle;rounded=0;orthogonalLoop=1;jettySize=auto;html=1;" edge="1" parent="1" source="PrI9KaRf1beF4u_ZDY7f-6">
          <mxGeometry relative="1" as="geometry">
            <mxPoint x="1210" y="870" as="targetPoint" />
          </mxGeometry>
        </mxCell>
        <mxCell id="PrI9KaRf1beF4u_ZDY7f-6" value="&lt;div align=&quot;left&quot;&gt;&lt;font face=&quot;Work sans&quot;&gt;{&amp;nbsp; &lt;br&gt;&lt;/font&gt;&lt;/div&gt;&lt;div align=&quot;left&quot;&gt;&lt;font face=&quot;Work sans&quot;&gt;&quot;code&quot;: &quot;string&quot;,&lt;/font&gt;&lt;/div&gt;&lt;div align=&quot;left&quot;&gt;&lt;font face=&quot;Work sans&quot;&gt;&quot;codeRetour&quot;: &quot;string&quot;,&lt;/font&gt;&lt;/div&gt;&lt;div align=&quot;left&quot;&gt;&lt;font face=&quot;Work sans&quot;&gt;&quot;nomEnvironnementCodage&quot;: &quot;string&quot;,&lt;/font&gt;&lt;/div&gt;&lt;div align=&quot;left&quot;&gt;&lt;font face=&quot;Work sans&quot;&gt;&quot;MLversion&quot;: &quot;string&quot;,&lt;/font&gt;&lt;/div&gt;&lt;div align=&quot;left&quot;&gt;&lt;font face=&quot;Work sans&quot;&gt;&quot;NAFversion&quot;: &quot;string&quot;&lt;/font&gt;&lt;/div&gt;&lt;div align=&quot;left&quot;&gt;&lt;font face=&quot;Work sans&quot;&gt;}&lt;/font&gt;&lt;/div&gt;&lt;div align=&quot;left&quot;&gt;&lt;font face=&quot;Work sans&quot;&gt;&amp;nbsp;&lt;/font&gt;&lt;/div&gt;" style="shape=process;whiteSpace=wrap;html=1;backgroundOutline=1;fontSize=18;" vertex="1" parent="1">
          <mxGeometry x="740" y="712.5" width="330" height="315" as="geometry" />
        </mxCell>
        <mxCell id="PrI9KaRf1beF4u_ZDY7f-19" value="" style="endArrow=classic;html=1;rounded=0;exitX=0.5;exitY=1;exitDx=0;exitDy=0;entryX=0;entryY=0.5;entryDx=0;entryDy=0;" edge="1" parent="1" source="HjJ79D1jQwEfLb-Sxw5U-41" target="PrI9KaRf1beF4u_ZDY7f-5">
          <mxGeometry width="50" height="50" relative="1" as="geometry">
            <mxPoint x="-270.0000000000007" y="151.09999999999945" as="sourcePoint" />
            <mxPoint x="959.25" y="149.5" as="targetPoint" />
            <Array as="points">
              <mxPoint x="-207" y="870" />
            </Array>
          </mxGeometry>
        </mxCell>
        <mxCell id="PrI9KaRf1beF4u_ZDY7f-20" value="" style="shape=image;verticalLabelPosition=bottom;labelBackgroundColor=default;verticalAlign=top;aspect=fixed;imageAspect=0;image=data:image/svg+xml,PHN2ZyB4bWw6c3BhY2U9InByZXNlcnZlIiBvdmVyZmxvdz0idmlzaWJsZSIgdmlld0JveD0iMCAwIDM1NC4zNDYgNjU5LjA1NSIgaGVpZ2h0PSI2NTkuMDU1IiB3aWR0aD0iMzU0LjM0NiIgeG1sbnM6eGxpbms9Imh0dHA6Ly93d3cudzMub3JnLzE5OTkveGxpbmsiIHhtbG5zPSJodHRwOi8vd3d3LnczLm9yZy8yMDAwL3N2ZyIgaWQ9IkxheWVyXzEiIHZlcnNpb249IjEuMSI+JiN4YTs8Zz4mI3hhOwk8cGF0aCBkPSJNMTE3LjE1MSwzNDkuNTkyYzAsMC0xNy4yNjUsMTAuMDQ5LDEyLjMwMSwxMy40NCAgIGMzNS44MjQsNC4wOSw1NC4xMywzLjUwMSw5My41OTYtMy45NTljMCwwLDEwLjM5Nyw2LjUwNCwyNC44OTIsMTIuMTM3QzE1OS40MzksNDA5LjEyNyw0Ny42NDQsMzY5LjAxMywxMTcuMTUxLDM0OS41OTIgICBMMTE3LjE1MSwzNDkuNTkyeiIgZmlsbD0iIzAwNzRCRCIgY2xpcC1ydWxlPSJldmVub2RkIiBmaWxsLXJ1bGU9ImV2ZW5vZGQiLz4mI3hhOwk8cGF0aCBkPSJNMTA2LjMzMSwzMDAuMTA0YzAsMC0xOS4zNjcsMTQuMzM5LDEwLjIyMSwxNy4zOTcgICBjMzguMjcxLDMuOTUxLDY4LjQ4Myw0LjI3NSwxMjAuNzkyLTUuNzkyYzAsMCw3LjIxOCw3LjMzMiwxOC41ODUsMTEuMzM5QzE0OC45NDMsMzU0LjM0MiwyOS43ODIsMzI1LjUxLDEwNi4zMzEsMzAwLjEwNCAgIEwxMDYuMzMxLDMwMC4xMDR6IiBmaWxsPSIjMDA3NEJEIiBjbGlwLXJ1bGU9ImV2ZW5vZGQiIGZpbGwtcnVsZT0iZXZlbm9kZCIvPiYjeGE7CTxwYXRoIGQ9Ik0xOTcuNDk0LDIxNi4xNDVjMjEuODE4LDI1LjExNS01LjcyMSw0Ny42OTctNS43MjEsNDcuNjk3ICAgczU1LjM2Ny0yOC41NzcsMjkuOTQ1LTY0LjM4Yy0yMy43NTItMzMuMzczLTQxLjk2Mi00OS45NTEsNTYuNjIzLTEwNy4xMjRDMjc4LjM0Miw5Mi4zMzgsMTIzLjU4NywxMzAuOTc5LDE5Ny40OTQsMjE2LjE0NSAgIEwxOTcuNDk0LDIxNi4xNDV6IiBmaWxsPSIjRUEyRDJFIiBjbGlwLXJ1bGU9ImV2ZW5vZGQiIGZpbGwtcnVsZT0iZXZlbm9kZCIvPiYjeGE7CTxwYXRoIGQ9Ik0zMTQuNTQyLDM4Ni4yMDJjMCwwLDEyLjc4MSwxMC41MzYtMTQuMDc3LDE4LjY4NCAgIGMtNTEuMDcxLDE1LjQ2OS0yMTIuNjA0LDIwLjEzNS0yNTcuNDcsMC42MTljLTE2LjExNy03LjAyLDE0LjEyMS0xNi43NSwyMy42MzUtMTguODA1YzkuOTItMi4xNDYsMTUuNTg0LTEuNzU0LDE1LjU4NC0xLjc1NCAgIGMtMTcuOTM3LTEyLjYzMS0xMTUuOTM1LDI0LjgwNy00OS43NzIsMzUuNTQ0QzIxMi44NzEsNDQ5LjczNiwzNjEuMzM3LDQwNy4zMTcsMzE0LjU0MiwzODYuMjAyTDMxNC41NDIsMzg2LjIwMnoiIGZpbGw9IiMwMDc0QkQiIGNsaXAtcnVsZT0iZXZlbm9kZCIgZmlsbC1ydWxlPSJldmVub2RkIi8+JiN4YTsJPHBhdGggZD0iTTEyNS40NiwyNDguODIyYzAsMC04Mi4xNTUsMTkuNTE5LTI5LjA5MiwyNi42MTMgICBjMjIuNDEyLDIuOTk5LDY3LjA2MywyLjMwOSwxMDguNjg1LTEuMTgzYzM0LjAwNi0yLjg1NCw2OC4xMzMtOC45NTgsNjguMTMzLTguOTU4cy0xMS45ODIsNS4xNC0yMC42NTcsMTEuMDYgICBDMTY5LjA4NSwyOTguMzAxLDcuOTE3LDI4OC4wOCw1NC4zMjIsMjY1LjY0MkM5My41NDksMjQ2LjY2NSwxMjUuNDYsMjQ4LjgyMiwxMjUuNDYsMjQ4LjgyMkwxMjUuNDYsMjQ4LjgyMnoiIGZpbGw9IiMwMDc0QkQiIGNsaXAtcnVsZT0iZXZlbm9kZCIgZmlsbC1ydWxlPSJldmVub2RkIi8+JiN4YTsJPHBhdGggZD0iTTI3Mi44NDYsMzMxLjE5OGM4NC44MTgtNDQuMDYzLDQ1LjU5Ny04Ni40MTIsMTguMjIzLTgwLjcwOCAgIGMtNi42OTQsMS4zOTctOS42OTcsMi42MDctOS42OTcsMi42MDdzMi40OTQtMy45MDcsNy4yNDMtNS41ODhjNTQuMTU1LTE5LjAzLDk1Ljc5NCw1Ni4xNDYtMTcuNDY0LDg1LjkxOSAgIEMyNzEuMTUsMzMzLjQyOCwyNzIuNDUzLDMzMi4yNDgsMjcyLjg0NiwzMzEuMTk4TDI3Mi44NDYsMzMxLjE5OHoiIGZpbGw9IiMwMDc0QkQiIGNsaXAtcnVsZT0iZXZlbm9kZCIgZmlsbC1ydWxlPSJldmVub2RkIi8+JiN4YTsJPHBhdGggZD0iTTIyMS43MTksMGMwLDAsNDYuOTYzLDQ2Ljk5LTQ0LjU1NywxMTkuMjI3ICAgYy03My4zOTMsNTcuOTY5LTE2LjczNCw5MS4wMDktMC4wMjYsMTI4Ljc3OGMtNDIuODQ1LTM4LjY1My03NC4yNzEtNzIuNjg0LTUzLjE5Mi0xMDQuMzUyICAgQzE1NC44OTgsOTcuMTc0LDI0MC42NjMsNzQuNjMyLDIyMS43MTksMEwyMjEuNzE5LDB6IiBmaWxsPSIjRUEyRDJFIiBjbGlwLXJ1bGU9ImV2ZW5vZGQiIGZpbGwtcnVsZT0iZXZlbm9kZCIvPiYjeGE7CTxwYXRoIGQ9Ik0xMzMuNzk5LDQ1MC42MzdjODEuMzk3LDUuMjA0LDIwNi40MjYtMi44OTYsMjA5LjM4NS00MS40MTUgICBjMCwwLTUuNjg4LDE0LjYwMi02Ny4yNzYsMjYuMTg4Yy02OS40ODEsMTMuMDgxLTE1NS4xOTcsMTEuNTU4LTIwNi4wMTYsMy4xNjdDNjkuODkyLDQzOC41NzcsODAuMzAzLDQ0Ny4xOTQsMTMzLjc5OSw0NTAuNjM3ICAgTDEzMy43OTksNDUwLjYzN3oiIGZpbGw9IiMwMDc0QkQiIGNsaXAtcnVsZT0iZXZlbm9kZCIgZmlsbC1ydWxlPSJldmVub2RkIi8+JiN4YTsJPHBhdGggZD0iTTMzOS40MjYsNTE5LjcxNmgtMi40Nzl2LTEuMzg1aDYuNjc2djEuMzg1aC0yLjQ2OXY2LjkyOGgtMS43MjkgICBWNTE5LjcxNkwzMzkuNDI2LDUxOS43MTZMMzM5LjQyNiw1MTkuNzE2eiBNMzUyLjc1Niw1MjAuMDY3aC0wLjAzMmwtMi40NjEsNi41NzZoLTEuMTMybC0yLjQ0Ni02LjU3NmgtMC4wMjV2Ni41NzZoLTEuNjM4di04LjMxMyAgIGgyLjQwMmwyLjI2NCw1Ljg4NWwyLjI3MS01Ljg4NWgyLjM4OHY4LjMxM2gtMS41OVY1MjAuMDY3TDM1Mi43NTYsNTIwLjA2N3oiIGZpbGw9IiNFQTJEMkUiIGNsaXAtcnVsZT0iZXZlbm9kZCIgZmlsbC1ydWxlPSJldmVub2RkIi8+JiN4YTsJPHBhdGggZD0iTTEyMC40NjEsNTk3LjgxM2MtNy42NzYsNi42NTQtMTUuNzkzLDEwLjM5Ni0yMy4wNzksMTAuMzk2ICAgYy0xMC4zNzgsMC0xNi4wMDctNi4yMzYtMTYuMDA3LTE2LjIxNmMwLTEwLjgwMyw2LjAyNy0xOC43MSwzMC4xNjMtMTguNzFoOC45MjNWNTk3LjgxM0wxMjAuNDYxLDU5Ny44MTNMMTIwLjQ2MSw1OTcuODEzeiAgICBNMTQxLjY1LDYyMS43MTZWNTQ3LjcyYzAtMTguOTE1LTEwLjc4Ny0zMS4zOTYtMzYuNzgyLTMxLjM5NmMtMTUuMTY4LDAtMjguNDY3LDMuNzUtMzkuMjc4LDguNTI1bDMuMTExLDEzLjEwNiAgIGM4LjUxNS0zLjEyNywxOS41MjYtNi4wMzEsMzAuMzM3LTYuMDMxYzE0Ljk3OCwwLDIxLjQyMyw2LjAzMSwyMS40MjMsMTguNTA1djkuMzU2aC03LjQ4NWMtMzYuMzgzLDAtNTIuNzk4LDE0LjExLTUyLjc5OCwzNS4zMzYgICBjMCwxOC4yODUsMTAuODE5LDI4LjY4MiwzMS4xODUsMjguNjgyYzEzLjA4OCwwLDIyLjg3LTUuNDA1LDMyLjAwMS0xMy4zMTVsMS42NjMsMTEuMjI4SDE0MS42NUwxNDEuNjUsNjIxLjcxNnoiIGZpbGw9IiNFQTJEMkUiIGNsaXAtcnVsZT0iZXZlbm9kZCIgZmlsbC1ydWxlPSJldmVub2RkIi8+JiN4YTsJPHBhdGggZD0iTTIxMi4zNjIsNjIxLjcxNmgtMjYuNDIzbC0zMS44MDctMTAzLjUwMmgyMy4wNzdsMTkuNzQzLDYzLjYgICBsNC4zOTEsMTkuMTA5YzkuOTY1LTI3LjYzOSwxNy4wMzItNTUuNzAxLDIwLjU2Ni04Mi43MDloMjIuNDQ1QzIzOC4zNTIsNTUyLjI5NCwyMjcuNTIzLDU4OS43MDYsMjEyLjM2Miw2MjEuNzE2TDIxMi4zNjIsNjIxLjcxNnoiIGZpbGw9IiNFQTJEMkUiIGNsaXAtcnVsZT0iZXZlbm9kZCIgZmlsbC1ydWxlPSJldmVub2RkIi8+JiN4YTsJPHBhdGggZD0iTTMxMy43NTUsNTk3LjgxM2MtNy43MDEsNi42NTQtMTUuODIsMTAuMzk2LTIzLjA4NiwxMC4zOTYgICBjLTEwLjM4MiwwLTE2LjAxMS02LjIzNi0xNi4wMTEtMTYuMjE2YzAtMTAuODAzLDYuMDM5LTE4LjcxLDMwLjE1NC0xOC43MWg4Ljk0MlY1OTcuODEzTDMxMy43NTUsNTk3LjgxM0wzMTMuNzU1LDU5Ny44MTN6ICAgIE0zMzQuOTUxLDYyMS43MTZWNTQ3LjcyYzAtMTguOTE1LTEwLjgxOC0zMS4zOTYtMzYuNzg5LTMxLjM5NmMtMTUuMTg4LDAtMjguNDg0LDMuNzUtMzkuMjk1LDguNTI1bDMuMTE2LDEzLjEwNiAgIGM4LjUxOS0zLjEyNywxOS41NDUtNi4wMzEsMzAuMzU1LTYuMDMxYzE0Ljk2LDAsMjEuNDE2LDYuMDMxLDIxLjQxNiwxOC41MDV2OS4zNTZoLTcuNDg1Yy0zNi4zOTEsMC01Mi44MDEsMTQuMTEtNTIuODAxLDM1LjMzNiAgIGMwLDE4LjI4NSwxMC44MDQsMjguNjgyLDMxLjE2OSwyOC42ODJjMTMuMDk5LDAsMjIuODYyLTUuNDA1LDMyLjAxOC0xMy4zMTVsMS42NzQsMTEuMjI4SDMzNC45NTFMMzM0Ljk1MSw2MjEuNzE2eiIgZmlsbD0iI0VBMkQyRSIgY2xpcC1ydWxlPSJldmVub2RkIiBmaWxsLXJ1bGU9ImV2ZW5vZGQiLz4mI3hhOwk8cGF0aCBkPSJNMzYuOTQxLDYzOS4zMDZjLTYuMDM3LDguODIxLTE1LjgsMTUuODA5LTI2LjQ3OSwxOS43NDkgICBMMCw2NDYuNzMxYzguMTM1LTQuMTc4LDE1LjEwMy0xMC45MTIsMTguMzQ1LTE3LjE4MmMyLjc5Ni01LjU4OSwzLjk2LTEyLjc3MywzLjk2LTI5Ljk3MVY0ODEuMzk4aDIyLjUxOXYxMTYuNTUxICAgQzQ0LjgyNCw2MjAuOTUsNDIuOTg4LDYzMC4yNDksMzYuOTQxLDYzOS4zMDZMMzYuOTQxLDYzOS4zMDZ6IiBmaWxsPSIjRUEyRDJFIiBjbGlwLXJ1bGU9ImV2ZW5vZGQiIGZpbGwtcnVsZT0iZXZlbm9kZCIvPiYjeGE7PC9nPiYjeGE7PC9zdmc+;fontSize=20;" vertex="1" parent="1">
          <mxGeometry x="470" y="940" width="69.81" height="130" as="geometry" />
        </mxCell>
        <mxCell id="PrI9KaRf1beF4u_ZDY7f-21" value="" style="shape=process;whiteSpace=wrap;html=1;backgroundOutline=1;fontSize=18;" vertex="1" parent="1">
          <mxGeometry x="120" y="105" width="330" height="315" as="geometry" />
        </mxCell>
        <mxCell id="PrI9KaRf1beF4u_ZDY7f-22" value="" style="endArrow=classic;html=1;rounded=0;exitX=0.5;exitY=1;exitDx=0;exitDy=0;" edge="1" parent="1">
          <mxGeometry width="50" height="50" relative="1" as="geometry">
            <mxPoint x="287.5" y="420" as="sourcePoint" />
            <mxPoint x="283" y="670" as="targetPoint" />
          </mxGeometry>
        </mxCell>
        <mxCell id="PrI9KaRf1beF4u_ZDY7f-34" value="" style="edgeStyle=orthogonalEdgeStyle;rounded=0;orthogonalLoop=1;jettySize=auto;html=1;entryX=1;entryY=0.5;entryDx=0;entryDy=0;" edge="1" parent="1" source="PrI9KaRf1beF4u_ZDY7f-25" target="PrI9KaRf1beF4u_ZDY7f-32">
          <mxGeometry relative="1" as="geometry">
            <mxPoint x="-1295" y="870" as="targetPoint" />
          </mxGeometry>
        </mxCell>
        <mxCell id="PrI9KaRf1beF4u_ZDY7f-25" value="&lt;h2&gt;WS applicatif codification&lt;br&gt;&lt;/h2&gt;&lt;h2&gt;(côté IHM)&lt;br&gt;&lt;/h2&gt;&lt;h2&gt;/recherche-nouvelle-naf&lt;br&gt;&lt;/h2&gt;" style="rounded=1;whiteSpace=wrap;html=1;fillColor=#dae8fc;fontFamily=Work Sans;strokeColor=#6c8ebf;fontSource=https%3A%2F%2Ffonts.googleapis.com%2Fcss%3Ffamily%3DWork%2BSans;fontSize=20;" vertex="1" parent="1">
          <mxGeometry x="-980" y="670" width="550" height="400" as="geometry" />
        </mxCell>
        <mxCell id="PrI9KaRf1beF4u_ZDY7f-26" value="" style="shape=process;whiteSpace=wrap;html=1;backgroundOutline=1;fontSize=18;" vertex="1" parent="1">
          <mxGeometry x="-865" y="105" width="330" height="315" as="geometry" />
        </mxCell>
        <mxCell id="PrI9KaRf1beF4u_ZDY7f-27" value="" style="endArrow=classic;html=1;rounded=0;exitX=0.5;exitY=1;exitDx=0;exitDy=0;entryX=0.5;entryY=0;entryDx=0;entryDy=0;" edge="1" parent="1" source="PrI9KaRf1beF4u_ZDY7f-26" target="PrI9KaRf1beF4u_ZDY7f-25">
          <mxGeometry width="50" height="50" relative="1" as="geometry">
            <mxPoint x="940" y="1090" as="sourcePoint" />
            <mxPoint x="990" y="1040" as="targetPoint" />
          </mxGeometry>
        </mxCell>
        <mxCell id="PrI9KaRf1beF4u_ZDY7f-28" value="" style="shape=image;verticalLabelPosition=bottom;labelBackgroundColor=default;verticalAlign=top;aspect=fixed;imageAspect=0;image=data:image/svg+xml,PHN2ZyB4bWw6c3BhY2U9InByZXNlcnZlIiBvdmVyZmxvdz0idmlzaWJsZSIgdmlld0JveD0iMCAwIDM1NC4zNDYgNjU5LjA1NSIgaGVpZ2h0PSI2NTkuMDU1IiB3aWR0aD0iMzU0LjM0NiIgeG1sbnM6eGxpbms9Imh0dHA6Ly93d3cudzMub3JnLzE5OTkveGxpbmsiIHhtbG5zPSJodHRwOi8vd3d3LnczLm9yZy8yMDAwL3N2ZyIgaWQ9IkxheWVyXzEiIHZlcnNpb249IjEuMSI+JiN4YTs8Zz4mI3hhOwk8cGF0aCBkPSJNMTE3LjE1MSwzNDkuNTkyYzAsMC0xNy4yNjUsMTAuMDQ5LDEyLjMwMSwxMy40NCAgIGMzNS44MjQsNC4wOSw1NC4xMywzLjUwMSw5My41OTYtMy45NTljMCwwLDEwLjM5Nyw2LjUwNCwyNC44OTIsMTIuMTM3QzE1OS40MzksNDA5LjEyNyw0Ny42NDQsMzY5LjAxMywxMTcuMTUxLDM0OS41OTIgICBMMTE3LjE1MSwzNDkuNTkyeiIgZmlsbD0iIzAwNzRCRCIgY2xpcC1ydWxlPSJldmVub2RkIiBmaWxsLXJ1bGU9ImV2ZW5vZGQiLz4mI3hhOwk8cGF0aCBkPSJNMTA2LjMzMSwzMDAuMTA0YzAsMC0xOS4zNjcsMTQuMzM5LDEwLjIyMSwxNy4zOTcgICBjMzguMjcxLDMuOTUxLDY4LjQ4Myw0LjI3NSwxMjAuNzkyLTUuNzkyYzAsMCw3LjIxOCw3LjMzMiwxOC41ODUsMTEuMzM5QzE0OC45NDMsMzU0LjM0MiwyOS43ODIsMzI1LjUxLDEwNi4zMzEsMzAwLjEwNCAgIEwxMDYuMzMxLDMwMC4xMDR6IiBmaWxsPSIjMDA3NEJEIiBjbGlwLXJ1bGU9ImV2ZW5vZGQiIGZpbGwtcnVsZT0iZXZlbm9kZCIvPiYjeGE7CTxwYXRoIGQ9Ik0xOTcuNDk0LDIxNi4xNDVjMjEuODE4LDI1LjExNS01LjcyMSw0Ny42OTctNS43MjEsNDcuNjk3ICAgczU1LjM2Ny0yOC41NzcsMjkuOTQ1LTY0LjM4Yy0yMy43NTItMzMuMzczLTQxLjk2Mi00OS45NTEsNTYuNjIzLTEwNy4xMjRDMjc4LjM0Miw5Mi4zMzgsMTIzLjU4NywxMzAuOTc5LDE5Ny40OTQsMjE2LjE0NSAgIEwxOTcuNDk0LDIxNi4xNDV6IiBmaWxsPSIjRUEyRDJFIiBjbGlwLXJ1bGU9ImV2ZW5vZGQiIGZpbGwtcnVsZT0iZXZlbm9kZCIvPiYjeGE7CTxwYXRoIGQ9Ik0zMTQuNTQyLDM4Ni4yMDJjMCwwLDEyLjc4MSwxMC41MzYtMTQuMDc3LDE4LjY4NCAgIGMtNTEuMDcxLDE1LjQ2OS0yMTIuNjA0LDIwLjEzNS0yNTcuNDcsMC42MTljLTE2LjExNy03LjAyLDE0LjEyMS0xNi43NSwyMy42MzUtMTguODA1YzkuOTItMi4xNDYsMTUuNTg0LTEuNzU0LDE1LjU4NC0xLjc1NCAgIGMtMTcuOTM3LTEyLjYzMS0xMTUuOTM1LDI0LjgwNy00OS43NzIsMzUuNTQ0QzIxMi44NzEsNDQ5LjczNiwzNjEuMzM3LDQwNy4zMTcsMzE0LjU0MiwzODYuMjAyTDMxNC41NDIsMzg2LjIwMnoiIGZpbGw9IiMwMDc0QkQiIGNsaXAtcnVsZT0iZXZlbm9kZCIgZmlsbC1ydWxlPSJldmVub2RkIi8+JiN4YTsJPHBhdGggZD0iTTEyNS40NiwyNDguODIyYzAsMC04Mi4xNTUsMTkuNTE5LTI5LjA5MiwyNi42MTMgICBjMjIuNDEyLDIuOTk5LDY3LjA2MywyLjMwOSwxMDguNjg1LTEuMTgzYzM0LjAwNi0yLjg1NCw2OC4xMzMtOC45NTgsNjguMTMzLTguOTU4cy0xMS45ODIsNS4xNC0yMC42NTcsMTEuMDYgICBDMTY5LjA4NSwyOTguMzAxLDcuOTE3LDI4OC4wOCw1NC4zMjIsMjY1LjY0MkM5My41NDksMjQ2LjY2NSwxMjUuNDYsMjQ4LjgyMiwxMjUuNDYsMjQ4LjgyMkwxMjUuNDYsMjQ4LjgyMnoiIGZpbGw9IiMwMDc0QkQiIGNsaXAtcnVsZT0iZXZlbm9kZCIgZmlsbC1ydWxlPSJldmVub2RkIi8+JiN4YTsJPHBhdGggZD0iTTI3Mi44NDYsMzMxLjE5OGM4NC44MTgtNDQuMDYzLDQ1LjU5Ny04Ni40MTIsMTguMjIzLTgwLjcwOCAgIGMtNi42OTQsMS4zOTctOS42OTcsMi42MDctOS42OTcsMi42MDdzMi40OTQtMy45MDcsNy4yNDMtNS41ODhjNTQuMTU1LTE5LjAzLDk1Ljc5NCw1Ni4xNDYtMTcuNDY0LDg1LjkxOSAgIEMyNzEuMTUsMzMzLjQyOCwyNzIuNDUzLDMzMi4yNDgsMjcyLjg0NiwzMzEuMTk4TDI3Mi44NDYsMzMxLjE5OHoiIGZpbGw9IiMwMDc0QkQiIGNsaXAtcnVsZT0iZXZlbm9kZCIgZmlsbC1ydWxlPSJldmVub2RkIi8+JiN4YTsJPHBhdGggZD0iTTIyMS43MTksMGMwLDAsNDYuOTYzLDQ2Ljk5LTQ0LjU1NywxMTkuMjI3ICAgYy03My4zOTMsNTcuOTY5LTE2LjczNCw5MS4wMDktMC4wMjYsMTI4Ljc3OGMtNDIuODQ1LTM4LjY1My03NC4yNzEtNzIuNjg0LTUzLjE5Mi0xMDQuMzUyICAgQzE1NC44OTgsOTcuMTc0LDI0MC42NjMsNzQuNjMyLDIyMS43MTksMEwyMjEuNzE5LDB6IiBmaWxsPSIjRUEyRDJFIiBjbGlwLXJ1bGU9ImV2ZW5vZGQiIGZpbGwtcnVsZT0iZXZlbm9kZCIvPiYjeGE7CTxwYXRoIGQ9Ik0xMzMuNzk5LDQ1MC42MzdjODEuMzk3LDUuMjA0LDIwNi40MjYtMi44OTYsMjA5LjM4NS00MS40MTUgICBjMCwwLTUuNjg4LDE0LjYwMi02Ny4yNzYsMjYuMTg4Yy02OS40ODEsMTMuMDgxLTE1NS4xOTcsMTEuNTU4LTIwNi4wMTYsMy4xNjdDNjkuODkyLDQzOC41NzcsODAuMzAzLDQ0Ny4xOTQsMTMzLjc5OSw0NTAuNjM3ICAgTDEzMy43OTksNDUwLjYzN3oiIGZpbGw9IiMwMDc0QkQiIGNsaXAtcnVsZT0iZXZlbm9kZCIgZmlsbC1ydWxlPSJldmVub2RkIi8+JiN4YTsJPHBhdGggZD0iTTMzOS40MjYsNTE5LjcxNmgtMi40Nzl2LTEuMzg1aDYuNjc2djEuMzg1aC0yLjQ2OXY2LjkyOGgtMS43MjkgICBWNTE5LjcxNkwzMzkuNDI2LDUxOS43MTZMMzM5LjQyNiw1MTkuNzE2eiBNMzUyLjc1Niw1MjAuMDY3aC0wLjAzMmwtMi40NjEsNi41NzZoLTEuMTMybC0yLjQ0Ni02LjU3NmgtMC4wMjV2Ni41NzZoLTEuNjM4di04LjMxMyAgIGgyLjQwMmwyLjI2NCw1Ljg4NWwyLjI3MS01Ljg4NWgyLjM4OHY4LjMxM2gtMS41OVY1MjAuMDY3TDM1Mi43NTYsNTIwLjA2N3oiIGZpbGw9IiNFQTJEMkUiIGNsaXAtcnVsZT0iZXZlbm9kZCIgZmlsbC1ydWxlPSJldmVub2RkIi8+JiN4YTsJPHBhdGggZD0iTTEyMC40NjEsNTk3LjgxM2MtNy42NzYsNi42NTQtMTUuNzkzLDEwLjM5Ni0yMy4wNzksMTAuMzk2ICAgYy0xMC4zNzgsMC0xNi4wMDctNi4yMzYtMTYuMDA3LTE2LjIxNmMwLTEwLjgwMyw2LjAyNy0xOC43MSwzMC4xNjMtMTguNzFoOC45MjNWNTk3LjgxM0wxMjAuNDYxLDU5Ny44MTNMMTIwLjQ2MSw1OTcuODEzeiAgICBNMTQxLjY1LDYyMS43MTZWNTQ3LjcyYzAtMTguOTE1LTEwLjc4Ny0zMS4zOTYtMzYuNzgyLTMxLjM5NmMtMTUuMTY4LDAtMjguNDY3LDMuNzUtMzkuMjc4LDguNTI1bDMuMTExLDEzLjEwNiAgIGM4LjUxNS0zLjEyNywxOS41MjYtNi4wMzEsMzAuMzM3LTYuMDMxYzE0Ljk3OCwwLDIxLjQyMyw2LjAzMSwyMS40MjMsMTguNTA1djkuMzU2aC03LjQ4NWMtMzYuMzgzLDAtNTIuNzk4LDE0LjExLTUyLjc5OCwzNS4zMzYgICBjMCwxOC4yODUsMTAuODE5LDI4LjY4MiwzMS4xODUsMjguNjgyYzEzLjA4OCwwLDIyLjg3LTUuNDA1LDMyLjAwMS0xMy4zMTVsMS42NjMsMTEuMjI4SDE0MS42NUwxNDEuNjUsNjIxLjcxNnoiIGZpbGw9IiNFQTJEMkUiIGNsaXAtcnVsZT0iZXZlbm9kZCIgZmlsbC1ydWxlPSJldmVub2RkIi8+JiN4YTsJPHBhdGggZD0iTTIxMi4zNjIsNjIxLjcxNmgtMjYuNDIzbC0zMS44MDctMTAzLjUwMmgyMy4wNzdsMTkuNzQzLDYzLjYgICBsNC4zOTEsMTkuMTA5YzkuOTY1LTI3LjYzOSwxNy4wMzItNTUuNzAxLDIwLjU2Ni04Mi43MDloMjIuNDQ1QzIzOC4zNTIsNTUyLjI5NCwyMjcuNTIzLDU4OS43MDYsMjEyLjM2Miw2MjEuNzE2TDIxMi4zNjIsNjIxLjcxNnoiIGZpbGw9IiNFQTJEMkUiIGNsaXAtcnVsZT0iZXZlbm9kZCIgZmlsbC1ydWxlPSJldmVub2RkIi8+JiN4YTsJPHBhdGggZD0iTTMxMy43NTUsNTk3LjgxM2MtNy43MDEsNi42NTQtMTUuODIsMTAuMzk2LTIzLjA4NiwxMC4zOTYgICBjLTEwLjM4MiwwLTE2LjAxMS02LjIzNi0xNi4wMTEtMTYuMjE2YzAtMTAuODAzLDYuMDM5LTE4LjcxLDMwLjE1NC0xOC43MWg4Ljk0MlY1OTcuODEzTDMxMy43NTUsNTk3LjgxM0wzMTMuNzU1LDU5Ny44MTN6ICAgIE0zMzQuOTUxLDYyMS43MTZWNTQ3LjcyYzAtMTguOTE1LTEwLjgxOC0zMS4zOTYtMzYuNzg5LTMxLjM5NmMtMTUuMTg4LDAtMjguNDg0LDMuNzUtMzkuMjk1LDguNTI1bDMuMTE2LDEzLjEwNiAgIGM4LjUxOS0zLjEyNywxOS41NDUtNi4wMzEsMzAuMzU1LTYuMDMxYzE0Ljk2LDAsMjEuNDE2LDYuMDMxLDIxLjQxNiwxOC41MDV2OS4zNTZoLTcuNDg1Yy0zNi4zOTEsMC01Mi44MDEsMTQuMTEtNTIuODAxLDM1LjMzNiAgIGMwLDE4LjI4NSwxMC44MDQsMjguNjgyLDMxLjE2OSwyOC42ODJjMTMuMDk5LDAsMjIuODYyLTUuNDA1LDMyLjAxOC0xMy4zMTVsMS42NzQsMTEuMjI4SDMzNC45NTFMMzM0Ljk1MSw2MjEuNzE2eiIgZmlsbD0iI0VBMkQyRSIgY2xpcC1ydWxlPSJldmVub2RkIiBmaWxsLXJ1bGU9ImV2ZW5vZGQiLz4mI3hhOwk8cGF0aCBkPSJNMzYuOTQxLDYzOS4zMDZjLTYuMDM3LDguODIxLTE1LjgsMTUuODA5LTI2LjQ3OSwxOS43NDkgICBMMCw2NDYuNzMxYzguMTM1LTQuMTc4LDE1LjEwMy0xMC45MTIsMTguMzQ1LTE3LjE4MmMyLjc5Ni01LjU4OSwzLjk2LTEyLjc3MywzLjk2LTI5Ljk3MVY0ODEuMzk4aDIyLjUxOXYxMTYuNTUxICAgQzQ0LjgyNCw2MjAuOTUsNDIuOTg4LDYzMC4yNDksMzYuOTQxLDYzOS4zMDZMMzYuOTQxLDYzOS4zMDZ6IiBmaWxsPSIjRUEyRDJFIiBjbGlwLXJ1bGU9ImV2ZW5vZGQiIGZpbGwtcnVsZT0iZXZlbm9kZCIvPiYjeGE7PC9nPiYjeGE7PC9zdmc+;fontSize=20;" vertex="1" parent="1">
          <mxGeometry x="-530" y="940" width="69.81" height="130" as="geometry" />
        </mxCell>
        <mxCell id="PrI9KaRf1beF4u_ZDY7f-29" value="" style="endArrow=classic;html=1;rounded=0;entryX=1;entryY=0.5;entryDx=0;entryDy=0;" edge="1" parent="1" target="PrI9KaRf1beF4u_ZDY7f-25">
          <mxGeometry width="50" height="50" relative="1" as="geometry">
            <mxPoint x="-200" y="870" as="sourcePoint" />
            <mxPoint x="-60" y="80" as="targetPoint" />
          </mxGeometry>
        </mxCell>
        <mxCell id="PrI9KaRf1beF4u_ZDY7f-36" value="" style="edgeStyle=orthogonalEdgeStyle;rounded=0;orthogonalLoop=1;jettySize=auto;html=1;entryX=1.004;entryY=0.344;entryDx=0;entryDy=0;entryPerimeter=0;" edge="1" parent="1" source="PrI9KaRf1beF4u_ZDY7f-32" target="Oxx6fiZ2N93gh7QRnnVH-40">
          <mxGeometry relative="1" as="geometry">
            <mxPoint x="-1705" y="870" as="targetPoint" />
          </mxGeometry>
        </mxCell>
        <mxCell id="PrI9KaRf1beF4u_ZDY7f-32" value="&lt;div align=&quot;left&quot;&gt;&lt;font face=&quot;Work sans&quot;&gt;[&lt;/font&gt;&lt;/div&gt;&lt;div align=&quot;left&quot;&gt;&lt;font face=&quot;Work sans&quot;&gt;{&amp;nbsp; &lt;br&gt;&lt;/font&gt;&lt;/div&gt;&lt;div align=&quot;left&quot;&gt;&lt;font face=&quot;Work sans&quot;&gt;&quot;code&quot;: &quot;&quot;,&lt;/font&gt;&lt;/div&gt;&lt;div align=&quot;left&quot;&gt;&lt;font face=&quot;Work sans&quot;&gt;&quot;libelle&quot;: &quot;&quot;,&lt;/font&gt;&lt;/div&gt;&lt;div align=&quot;left&quot;&gt;&lt;font face=&quot;Work sans&quot;&gt;&quot;codeRetour&quot;: &quot;&quot;,&lt;/font&gt;&lt;/div&gt;&lt;div align=&quot;left&quot;&gt;&lt;font face=&quot;Work sans&quot;&gt;&quot;probabilite&quot;: &quot;&quot;,&lt;/font&gt;&lt;/div&gt;&lt;div align=&quot;left&quot;&gt;&lt;font face=&quot;Work sans&quot;&gt;&quot;libelleNettoye&quot;: &quot;&quot;,&lt;/font&gt;&lt;/div&gt;&lt;div align=&quot;left&quot;&gt;&lt;font face=&quot;Work sans&quot;&gt;&quot;MLversion&quot;: &quot;&quot;,&lt;/font&gt;&lt;/div&gt;&lt;div align=&quot;left&quot;&gt;&lt;font face=&quot;Work sans&quot;&gt;&quot;NAFversion&quot;: &quot;&quot;&lt;br&gt;&lt;/font&gt;&lt;/div&gt;&lt;div align=&quot;left&quot;&gt;&lt;font face=&quot;Work sans&quot;&gt;}, ... ,&amp;nbsp;&lt;/font&gt;&lt;/div&gt;&lt;div align=&quot;left&quot;&gt;&lt;font face=&quot;Work sans&quot;&gt;{&quot;code&quot;: &quot;string&quot;, ...}&lt;/font&gt;&lt;/div&gt;&lt;div align=&quot;left&quot;&gt;&lt;font face=&quot;Work sans&quot;&gt;]&lt;br&gt;&lt;/font&gt;&lt;/div&gt;&lt;div align=&quot;left&quot;&gt;&lt;font face=&quot;Work sans&quot;&gt;&lt;br&gt;&lt;/font&gt;&lt;/div&gt;&lt;div align=&quot;left&quot;&gt;&lt;font face=&quot;Work sans&quot;&gt;&amp;nbsp;&lt;/font&gt;&lt;/div&gt;" style="shape=process;whiteSpace=wrap;html=1;backgroundOutline=1;fontSize=18;" vertex="1" parent="1">
          <mxGeometry x="-1500" y="712.5" width="330" height="315" as="geometry" />
        </mxCell>
        <mxCell id="PrI9KaRf1beF4u_ZDY7f-37" value="" style="shape=process;whiteSpace=wrap;html=1;backgroundOutline=1;fontSize=18;" vertex="1" parent="1">
          <mxGeometry x="-855" y="115" width="330" height="315" as="geometry" />
        </mxCell>
        <mxCell id="PrI9KaRf1beF4u_ZDY7f-38" value="" style="endArrow=classic;html=1;rounded=0;exitX=0.5;exitY=1;exitDx=0;exitDy=0;entryX=0.5;entryY=0;entryDx=0;entryDy=0;" edge="1" parent="1" source="PrI9KaRf1beF4u_ZDY7f-37">
          <mxGeometry width="50" height="50" relative="1" as="geometry">
            <mxPoint x="950" y="1100" as="sourcePoint" />
            <mxPoint x="-695" y="680" as="targetPoint" />
          </mxGeometry>
        </mxCell>
        <mxCell id="PrI9KaRf1beF4u_ZDY7f-39" value="&lt;font style=&quot;font-size: 20px;&quot; face=&quot;Work sans&quot;&gt;&lt;b&gt;&lt;i&gt;Réponse de l&#39;API&lt;/i&gt;&lt;/b&gt;&lt;/font&gt;" style="text;html=1;align=center;verticalAlign=middle;resizable=0;points=[];autosize=1;strokeColor=none;fillColor=none;fontSize=18;" vertex="1" parent="1">
          <mxGeometry x="-295" y="360" width="190" height="40" as="geometry" />
        </mxCell>
      </root>
    </mxGraphModel>
  </diagram>
</mxfile>
